<svg width="58" height="59" viewBox="0 0 58 59" fill="none" xmlns="http://www.w3.org/2000/svg">
<g filter="url(#filter0_d)">
<path fill-rule="evenodd" clip-rule="evenodd" d="M28.2332 56.6008C43.488 56.4199 55.7102 43.6143 55.5332 27.9999C55.3559 12.3847 42.8469 -0.129944 27.5932 0.0515115C12.3428 0.232072 0.120824 13.0386 0.299968 28.6542C0.475116 44.2682 12.9845 56.7809 28.2332 56.6008ZM31.0565 15.9431C35.093 16.2569 38.3012 17.4887 38.6998 21.2721C38.996 24.0404 37.8825 25.7173 36.082 26.6829C39.0715 27.3804 40.9601 29.1722 40.6377 33.2419C40.2384 38.2961 36.578 39.6941 31.3297 40.0649L31.3888 45.369L28.265 45.4064L28.207 40.1733C27.3976 40.1837 26.5683 40.1865 25.7113 40.1786L25.771 45.4359L22.6505 45.4724L22.589 40.1589C22.2969 40.1605 22.0026 40.1608 21.7062 40.161C21.2611 40.1614 20.8113 40.1618 20.3571 40.1666L16.2919 40.215L16.8693 36.3886C16.8693 36.3886 19.1805 36.398 19.1401 36.3622C20.0242 36.3502 20.2509 35.6974 20.3018 35.2891L20.2076 26.9046C20.2841 26.903 20.3591 26.9022 20.4315 26.9015C20.4676 26.9011 20.503 26.9007 20.5376 26.9002C20.4084 26.8837 20.2945 26.8813 20.2072 26.8819L20.1391 20.8968C20.0119 20.2493 19.5916 19.5022 18.3263 19.5168C18.3641 19.4729 16.0578 19.5453 16.0578 19.5453L16.0183 16.1299L20.3269 16.0802L20.3275 16.0965C20.9751 16.0884 21.6391 16.0676 22.3153 16.0455L22.257 10.7933L25.3791 10.7563L25.437 15.9054C26.2708 15.8785 27.11 15.8519 27.9312 15.842L27.8731 10.7268L30.9969 10.6894L31.0565 15.9431ZM26.3514 36.3095C28.9097 36.3154 34.5009 36.3285 34.458 32.6855C34.4161 28.9601 29.0463 29.1537 26.4261 29.2482C26.1333 29.2588 25.8748 29.2681 25.662 29.2706L25.7409 36.3107C25.9157 36.3084 26.1213 36.3089 26.3514 36.3095ZM26.1394 26.0481C28.2737 26.0587 32.9293 26.0818 32.8927 22.7701C32.854 19.3831 28.3794 19.5576 26.1942 19.6428C25.9484 19.6524 25.7315 19.6609 25.5532 19.663L25.6254 26.048C25.7723 26.0463 25.9454 26.0471 26.1394 26.0481Z" fill="url(#paint0_linear)"/>
</g>
<defs>
<filter id="filter0_d" x="0.297974" y="0.0495605" width="57.237" height="58.5531" filterUnits="userSpaceOnUse" color-interpolation-filters="sRGB">
<feFlood flood-opacity="0" result="BackgroundImageFix"/>
<feColorMatrix in="SourceAlpha" type="matrix" values="0 0 0 0 0 0 0 0 0 0 0 0 0 0 0 0 0 0 127 0"/>
<feOffset dx="2" dy="2"/>
<feColorMatrix type="matrix" values="0 0 0 0 0 0 0 0 0 0 0 0 0 0 0 0 0 0 0.3 0"/>
<feBlend mode="normal" in2="BackgroundImageFix" result="effect1_dropShadow"/>
<feBlend mode="normal" in="SourceGraphic" in2="effect1_dropShadow" result="shape"/>
</filter>
<linearGradient id="paint0_linear" x1="5.34052" y1="51.3459" x2="57.592" y2="36.1117" gradientUnits="userSpaceOnUse">
<stop stop-color="#00FFFF"/>
<stop offset="1" stop-color="#66FFCC"/>
</linearGradient>
</defs>
</svg>
