<svg width="58" height="59" viewBox="0 0 58 59" fill="none" xmlns="http://www.w3.org/2000/svg">
<g filter="url(#filter0_d)">
<path d="M27.6072 0.0355646C16.2996 0.0355646 5.56193 -0.99415 1.46055 9.78119C-0.233558 14.2316 0.0124627 20.0114 0.0124627 28.2874C0.0124627 35.5496 -0.214873 42.375 1.46055 46.7903C5.55258 57.5721 16.3775 56.5392 27.601 56.5392C38.429 56.5392 49.5933 57.6932 53.7445 46.7903C55.4417 42.2953 55.1926 36.6016 55.1926 28.2874C55.1926 17.2506 55.7874 10.1255 50.5587 4.77608C45.2646 -0.643473 38.1051 0.0355646 27.5947 0.0355646H27.6072ZM25.1345 5.12675C48.7213 5.0885 51.7234 2.40423 50.0666 39.6939C49.4781 52.8825 39.6684 51.4352 27.6103 51.4352C5.62421 51.4352 4.99203 50.7912 4.99203 28.2746C4.99203 5.49656 6.73597 5.13951 25.1345 5.12038V5.12675ZM42.3372 9.81626C40.5092 9.81626 39.0269 11.3337 39.0269 13.2051C39.0269 15.0764 40.5092 16.5939 42.3372 16.5939C44.1653 16.5939 45.6476 15.0764 45.6476 13.2051C45.6476 11.3337 44.1653 9.81626 42.3372 9.81626ZM27.6072 13.7789C19.7813 13.7789 13.4377 20.276 13.4377 28.2874C13.4377 36.2987 19.7813 42.7926 27.6072 42.7926C35.4331 42.7926 41.7736 36.2987 41.7736 28.2874C41.7736 20.276 35.4331 13.7789 27.6072 13.7789ZM27.6072 18.8701C39.7681 18.8701 39.7836 37.7046 27.6072 37.7046C15.4494 37.7046 15.4308 18.8701 27.6072 18.8701Z" fill="url(#paint0_linear)"/>
</g>
<defs>
<filter id="filter0_d" x="0" y="0.00830078" width="57.213" height="58.5661" filterUnits="userSpaceOnUse" color-interpolation-filters="sRGB">
<feFlood flood-opacity="0" result="BackgroundImageFix"/>
<feColorMatrix in="SourceAlpha" type="matrix" values="0 0 0 0 0 0 0 0 0 0 0 0 0 0 0 0 0 0 127 0"/>
<feOffset dx="2" dy="2"/>
<feColorMatrix type="matrix" values="0 0 0 0 0 0 0 0 0 0 0 0 0 0 0 0 0 0 0.3 0"/>
<feBlend mode="normal" in2="BackgroundImageFix" result="effect1_dropShadow"/>
<feBlend mode="normal" in="SourceGraphic" in2="effect1_dropShadow" result="shape"/>
</filter>
<linearGradient id="paint0_linear" x1="-36.0219" y1="44.8711" x2="18.2642" y2="43.3697" gradientUnits="userSpaceOnUse">
<stop stop-color="#00FFFF"/>
<stop offset="1" stop-color="#66FFCC"/>
</linearGradient>
</defs>
</svg>
