<svg width="65" height="59" viewBox="0 0 65 59" fill="none" xmlns="http://www.w3.org/2000/svg">
<g filter="url(#filter0_d)">
<path fill-rule="evenodd" clip-rule="evenodd" d="M51.3817 12.4152L24.843 37.2007L24.2315 40.615L23.62 47.4436L18.4835 32.1424L50.1587 11.2771C50.1587 11.2771 52.1155 10.0126 52.1155 11.2771C52.1155 11.2771 52.4824 11.4036 51.3817 12.4152ZM58.3527 0.654794L2.34009 23.2905C2.34009 23.2905 -0.228172 24.3021 0.0164243 25.9461C0.138723 27.7165 2.34009 28.4752 2.34009 28.4752L15.0591 32.9012L23.0085 54.7781C23.7423 55.1575 24.4761 54.5252 24.4761 54.5252L33.893 44.9145L47.7127 55.7898C51.6263 57.5602 52.9715 53.8929 52.9715 53.8929L63 2.04581C63 -1.49496 58.3527 0.654794 58.3527 0.654794Z" fill="url(#paint0_linear)"/>
</g>
<defs>
<filter id="filter0_d" x="0" y="0.00830078" width="65" height="58.2644" filterUnits="userSpaceOnUse" color-interpolation-filters="sRGB">
<feFlood flood-opacity="0" result="BackgroundImageFix"/>
<feColorMatrix in="SourceAlpha" type="matrix" values="0 0 0 0 0 0 0 0 0 0 0 0 0 0 0 0 0 0 127 0"/>
<feOffset dx="2" dy="2"/>
<feColorMatrix type="matrix" values="0 0 0 0 0 0 0 0 0 0 0 0 0 0 0 0 0 0 0.3 0"/>
<feBlend mode="normal" in2="BackgroundImageFix" result="effect1_dropShadow"/>
<feBlend mode="normal" in="SourceGraphic" in2="effect1_dropShadow" result="shape"/>
</filter>
<linearGradient id="paint0_linear" x1="-1.37092e-07" y1="44.6318" x2="61.9274" y2="42.667" gradientUnits="userSpaceOnUse">
<stop stop-color="#00FFFF"/>
<stop offset="1" stop-color="#66FFCC"/>
</linearGradient>
</defs>
</svg>
