<svg width="22" height="23" viewBox="0 0 22 23" fill="none" xmlns="http://www.w3.org/2000/svg">
<path fill-rule="evenodd" clip-rule="evenodd" d="M8.46429 19.7225V19.8279C8.46429 21.199 9.60714 22.324 11 22.324C12.3929 22.324 13.5357 21.199 13.5357 19.8279V19.7225H13.75H20C21.1071 19.7225 22 18.8436 22 17.7537C22 16.6639 21.1071 15.7498 20 15.7498H19.4643H19.4286H18.7857C18.6071 15.4686 18.5 15.117 18.5 14.7655V10.371C18.5 6.96087 16.1786 4.04293 12.8214 3.19919C12.7857 3.19919 12.7143 3.16403 12.7143 3.09372C12.6786 3.02341 12.6786 2.98825 12.7143 2.91794C12.8929 2.63669 13 2.28513 13 1.93357C13 0.843741 12.1071 0 11 0C9.89286 0 9.03572 0.843741 9.03572 1.93357C9.03572 2.28513 9.10714 2.63669 9.28572 2.91794C9.32143 2.98825 9.32143 3.02341 9.32143 3.09372C9.28572 3.16403 9.21429 3.19919 9.17857 3.19919C5.82143 4.04293 3.5 6.96087 3.5 10.371V14.7655C3.5 15.117 3.39286 15.4686 3.21429 15.7498H2.57143H2.03571C0.928571 15.7498 0 16.6639 0 17.7537C0 18.8436 0.928571 19.7225 2.03571 19.7225H8.28572H8.46429ZM12.0714 1.93357C12.0714 2.53122 11.6071 2.98825 11 2.98825C10.3929 2.98825 9.92857 2.53122 9.92857 1.93357C9.92857 1.33592 10.3929 0.878897 11 0.878897C11.6071 0.878897 12.0714 1.33592 12.0714 1.93357Z" fill="url(#paint0_linear)"/>
<defs>
<linearGradient id="paint0_linear" x1="-4.78733e-08" y1="17.7052" x2="21.6303" y2="17.1012" gradientUnits="userSpaceOnUse">
<stop stop-color="#FF00A8"/>
<stop offset="1" stop-color="#FF003D"/>
</linearGradient>
</defs>
</svg>
