<svg width="24" height="20" viewBox="0 0 24 20" fill="none" xmlns="http://www.w3.org/2000/svg">
<path fill-rule="evenodd" clip-rule="evenodd" d="M19.2031 4.41023L9.28466 13.2206L9.05612 14.4343L8.82759 16.8616L6.9079 11.4225L18.746 4.00567C18.746 4.00567 19.4773 3.55616 19.4773 4.00567C19.4773 4.00567 19.6144 4.05062 19.2031 4.41023ZM21.8084 0.229806L0.874572 8.276C0.874572 8.276 -0.0852757 8.6356 0.00613834 9.21996C0.0518453 9.84927 0.874572 10.119 0.874572 10.119L5.6281 11.6923L8.59905 19.4687C8.8733 19.6036 9.14754 19.3788 9.14754 19.3788L12.667 15.9626L17.8319 19.8283C19.2945 20.4577 19.7973 19.1541 19.7973 19.1541L23.5452 0.724264C23.5452 -0.534358 21.8084 0.229806 21.8084 0.229806Z" fill="url(#paint0_linear)"/>
<defs>
<linearGradient id="paint0_linear" x1="-7.25744e-08" y1="15.8621" x2="23.1419" y2="15.0901" gradientUnits="userSpaceOnUse">
<stop stop-color="#FF00A8"/>
<stop offset="1" stop-color="#FF003D"/>
</linearGradient>
</defs>
</svg>
