<svg width="25" height="20" viewBox="0 0 25 20" fill="none" xmlns="http://www.w3.org/2000/svg">
<path fill-rule="evenodd" clip-rule="evenodd" d="M12.3039 6.21687C8.03922 5.9759 4.26471 4 1.71569 0.915663C1.27451 1.68675 1.02941 2.55422 1.02941 3.46988C1.02941 5.20482 1.96078 6.74699 3.33333 7.66265C2.5 7.66265 1.66667 7.42169 0.980392 7.03614V7.08434C0.980392 9.54217 2.7451 11.5663 5.09804 12.0482C4.65686 12.1446 4.21569 12.241 3.77451 12.241C3.43137 12.241 3.08824 12.1928 2.79412 12.1446C3.43137 14.1205 5.34314 15.6145 7.59804 15.6145C5.83333 17.012 3.62745 17.7831 1.22549 17.7831C0.784314 17.7831 0.392157 17.7831 0 17.7349C2.2549 19.1807 4.95098 20 7.84314 20C17.3039 20 22.451 12.2892 22.451 5.63855V4.96386C23.4314 4.28916 24.3137 3.37349 25 2.36145C24.0686 2.74699 23.0882 3.03614 22.0588 3.18072C23.1373 2.55422 23.9216 1.54217 24.3137 0.385542C23.3333 0.963855 22.2059 1.3494 21.0784 1.59036C20.1471 0.626506 18.7745 0 17.3039 0C14.4608 0 12.1569 2.26506 12.1569 5.06024C12.1569 5.44578 12.2059 5.83133 12.3039 6.21687Z" fill="url(#paint0_linear)"/>
<defs>
<linearGradient id="paint0_linear" x1="-5.44015e-08" y1="15.8621" x2="24.5683" y2="14.9919" gradientUnits="userSpaceOnUse">
<stop stop-color="#FF00A8"/>
<stop offset="1" stop-color="#FF003D"/>
</linearGradient>
</defs>
</svg>
