<svg width="60" height="60" viewBox="0 0 60 60" fill="none" xmlns="http://www.w3.org/2000/svg">
<path fill-rule="evenodd" clip-rule="evenodd" d="M60 30C60 46.5685 46.5685 60 30 60C13.4315 60 0 46.5685 0 30C0 13.4315 13.4315 0 30 0C46.5685 0 60 13.4315 60 30ZM35.9831 17.88C40.0751 19.2895 43.0677 21.4025 42.4797 25.3329C42.0542 28.2102 40.4591 29.6031 38.3415 30.0914C41.2492 31.6052 42.7289 33.9268 41.3194 37.9514C39.5702 42.9498 35.4145 43.3717 29.888 42.3258L28.5468 47.7009L25.3058 46.8932L26.6295 41.5902C25.7895 41.3815 24.9311 41.16 24.0468 40.92L22.7185 46.248L19.4812 45.4403L20.8225 40.0551C20.5199 39.9776 20.2154 39.8982 19.9088 39.8182C19.4483 39.6981 18.983 39.5768 18.512 39.4588L14.2945 38.4074L15.9034 34.6975C15.9034 34.6975 18.2914 35.3326 18.2591 35.2855C19.1766 35.5126 19.5837 34.9145 19.7443 34.5157L21.8637 26.0188C21.9433 26.0379 22.0212 26.0574 22.0963 26.0763C22.1337 26.0856 22.1703 26.0948 22.2062 26.1037C22.0769 26.052 21.9597 26.0188 21.8692 25.9957L23.3812 19.9302C23.4209 19.2415 23.1837 18.3729 21.8711 18.0452C21.9218 18.0111 19.5172 17.46 19.5172 17.46L20.3794 13.9985L24.8489 15.1145L24.8452 15.1311C25.5172 15.2982 26.2095 15.4569 26.9148 15.6175L28.2431 10.2951L31.4822 11.1028L30.1806 16.3209C31.0502 16.5194 31.9252 16.7197 32.7772 16.932L34.0695 11.748L37.3105 12.5557L35.9831 17.88Z" fill="url(#paint0_linear)"/>
<path fill-rule="evenodd" clip-rule="evenodd" d="M35.9027 24.8831C35.0412 28.3706 29.7246 26.5987 28 26.1643L29.521 20C31.2456 20.4344 36.7998 21.2452 35.9027 24.8831Z" fill="url(#paint1_linear)"/>
<path fill-rule="evenodd" clip-rule="evenodd" d="M34.8955 35.6809C33.9019 39.6019 27.1795 37.4823 25 36.9508L26.7655 30C28.945 30.5342 35.9339 31.5918 34.8955 35.6809Z" fill="url(#paint2_linear)"/>
<defs>
<linearGradient id="paint0_linear" x1="30" y1="0" x2="30" y2="60" gradientUnits="userSpaceOnUse">
<stop stop-color="#66FFCC"/>
<stop offset="1" stop-color="#00FFFF"/>
</linearGradient>
<linearGradient id="paint1_linear" x1="32" y1="20" x2="32" y2="27" gradientUnits="userSpaceOnUse">
<stop stop-color="#66FFCC"/>
<stop offset="1" stop-color="#00FFFF"/>
</linearGradient>
<linearGradient id="paint2_linear" x1="30" y1="30" x2="30" y2="38" gradientUnits="userSpaceOnUse">
<stop stop-color="#66FFCC"/>
<stop offset="1" stop-color="#00FFFF"/>
</linearGradient>
</defs>
</svg>
