<svg width="29" height="24" viewBox="0 0 29 24" fill="none" xmlns="http://www.w3.org/2000/svg">
<path fill-rule="evenodd" clip-rule="evenodd" d="M14.3151 7.16485C9.56703 6.88714 5.36474 4.60994 2.52683 1.05529C2.03565 1.94395 1.76278 2.9437 1.76278 3.99899C1.76278 5.99848 2.79971 7.77581 4.32781 8.8311C3.40003 8.8311 2.47225 8.55339 1.7082 8.10906V8.1646C1.7082 10.9972 3.67291 13.33 6.29252 13.8854C5.80134 13.9965 5.31016 14.1075 4.81899 14.1075C4.43696 14.1075 4.05493 14.052 3.72748 13.9965C4.43696 16.2737 6.56539 17.9954 9.07585 17.9954C7.11114 19.6061 4.65526 20.4948 1.98108 20.4948C1.4899 20.4948 1.0533 20.4948 0.616699 20.4393C3.12716 22.1055 6.12879 23.0497 9.34873 23.0497C19.8817 23.0497 25.6121 14.1631 25.6121 6.49835V5.72077C26.7036 4.94319 27.686 3.8879 28.45 2.72153C27.4131 3.16586 26.3216 3.49911 25.1755 3.66574C26.3762 2.9437 27.2494 1.77733 27.686 0.444332C26.5945 1.11083 25.3392 1.55516 24.084 1.83287C23.0471 0.722039 21.519 0 19.8817 0C16.7164 0 14.1513 2.61045 14.1513 5.83186C14.1513 6.27619 14.2059 6.72052 14.3151 7.16485Z" fill="white"/>
</svg>
