<svg width="60" height="60" viewBox="0 0 60 60" fill="none" xmlns="http://www.w3.org/2000/svg">
<path fill-rule="evenodd" clip-rule="evenodd" d="M30 60C46.5685 60 60 46.5685 60 30C60 13.4315 46.5685 0 30 0C13.4315 0 0 13.4315 0 30C0 46.5685 13.4315 60 30 60Z" fill="#F7931A"/>
<path fill-rule="evenodd" clip-rule="evenodd" d="M42.4797 25.3329C43.0677 21.4025 40.0751 19.2895 35.9831 17.88L37.3105 12.5557L34.0695 11.748L32.7772 16.932C31.9252 16.7197 31.0502 16.5194 30.1806 16.3209L31.4822 11.1028L28.2431 10.2951L26.9148 15.6175C26.2095 15.4569 25.5172 15.2982 24.8452 15.1311L24.8489 15.1145L20.3794 13.9985L19.5172 17.46C19.5172 17.46 21.9218 18.0111 21.8711 18.0452C23.1837 18.3729 23.4209 19.2415 23.3812 19.9302L21.8692 25.9957C21.9597 26.0188 22.0769 26.052 22.2062 26.1037C22.0982 26.0769 21.9828 26.0474 21.8637 26.0188L19.7443 34.5157C19.5837 34.9145 19.1766 35.5126 18.2591 35.2855C18.2914 35.3326 15.9034 34.6975 15.9034 34.6975L14.2945 38.4074L18.512 39.4588C19.2966 39.6554 20.0655 39.8612 20.8225 40.0551L19.4812 45.4403L22.7185 46.248L24.0468 40.92C24.9311 41.16 25.7895 41.3815 26.6295 41.5902L25.3058 46.8932L28.5468 47.7009L29.888 42.3258C35.4145 43.3717 39.5702 42.9498 41.3194 37.9514C42.7289 33.9268 41.2492 31.6052 38.3415 30.0914C40.4591 29.6031 42.0542 28.2102 42.4797 25.3329ZM35.0747 35.7166C34.0731 39.7412 27.2968 37.5655 25.0999 37.02L26.8796 29.8855C29.0765 30.4338 36.1214 31.5194 35.0747 35.7166ZM36.0773 25.2748C35.1634 28.9357 29.5234 27.0757 27.6939 26.6197L29.3074 20.149C31.137 20.605 37.029 21.456 36.0773 25.2748Z" fill="white"/>
</svg>
