<svg xmlns="http://www.w3.org/2000/svg" width="385px" height="385px" viewBox="0 0 62 62" xmlns:xlink="http://www.w3.org/1999/xlink" version="1.1"><g id="qr-qrcode" transform="translate(0,0)"><defs/><rect fill="#FFF" width="62px" height="62px" x="0" y="0" class="qr-bg"/><g id="qr-image_bg"/><path id="p0" class="q-sq" d="M 2 2L 16 2L 16 16L 2 16L 2 2M 4 4L 4 14L 14 14L 14 4L 4 4 z" stroke-width="0" fill="#000"/><path id="p1" d="M 2 18L 12 18L 12 20L 2 20L 2 18 z" fill="#000" stroke-width="0"/><path id="p2" d="M 2 22L 6 22L 6 28L 2 28L 2 22 z" fill="#000" stroke-width="0"/><path id="p3" d="M 6 30L 10 30L 10 32L 12 32L 12 36L 14 36L 14 38L 16 38L 16 36L 24 36L 24 40L 22 40L 22 38L 20 38L 20 40L 18 40L 18 42L 16 42L 16 40L 12 40L 12 38L 8 38L 8 40L 10 40L 10 44L 8 44L 8 42L 6 42L 6 38L 4 38L 4 44L 2 44L 2 32L 6 32L 6 30M 4 34L 4 36L 6 36L 6 34L 4 34M 8 34L 8 36L 10 36L 10 34L 8 34 z" fill="#000" stroke-width="0"/><path id="p4" class="q-sq" d="M 2 46L 16 46L 16 60L 2 60L 2 46M 4 48L 4 58L 14 58L 14 48L 4 48 z" stroke-width="0" fill="#000"/><path id="p5" class="q-sqf" d="M 6 6L 12 6L 12 12L 6 12L 6 6 z" stroke-width="0" fill="#000"/><path id="p6" class="q-sqf" d="M 6 50L 12 50L 12 56L 6 56L 6 50 z" stroke-width="0" fill="#000"/><path id="p7" d="M 8 22L 16 22L 16 24L 14 24L 14 26L 16 26L 16 28L 10 28L 10 24L 8 24L 8 22 z" fill="#000" stroke-width="0"/><path id="p8" d="M 12 30L 16 30L 16 32L 12 32L 12 30 z" fill="#000" stroke-width="0"/><path id="p9" d="M 22 14L 24 14L 24 16L 26 16L 26 20L 24 20L 24 18L 22 18L 22 20L 18 20L 18 22L 16 22L 16 20L 14 20L 14 18L 20 18L 20 16L 22 16L 22 14 z" fill="#000" stroke-width="0"/><path id="p10" class="q-one" d="M 14 34L 16 34L 16 36L 14 36L 14 34 z" stroke-width="0" fill="#000"/><path id="p11" class="q-one" d="M 14 42L 16 42L 16 44L 14 44L 14 42 z" stroke-width="0" fill="#000"/><path id="p12" class="q-one" d="M 16 24L 18 24L 18 26L 16 26L 16 24 z" stroke-width="0" fill="#000"/><path id="p13" class="q-one" d="M 18 4L 20 4L 20 6L 18 6L 18 4 z" stroke-width="0" fill="#000"/><path id="p14" d="M 18 8L 24 8L 24 10L 22 10L 22 14L 20 14L 20 16L 18 16L 18 12L 20 12L 20 10L 18 10L 18 8 z" fill="#000" stroke-width="0"/><path id="p15" class="q-one" d="M 18 22L 20 22L 20 24L 18 24L 18 22 z" stroke-width="0" fill="#000"/><path id="p16" d="M 18 26L 24 26L 24 28L 20 28L 20 30L 18 30L 18 26 z" fill="#000" stroke-width="0"/><path id="p17" class="q-one" d="M 18 32L 20 32L 20 34L 18 34L 18 32 z" stroke-width="0" fill="#000"/><path id="p18" d="M 18 42L 20 42L 20 44L 22 44L 22 46L 20 46L 20 48L 18 48L 18 42 z" fill="#000" stroke-width="0"/><path id="p19" d="M 24 46L 28 46L 28 48L 26 48L 26 52L 24 52L 24 54L 20 54L 20 60L 18 60L 18 50L 22 50L 22 48L 24 48L 24 46 z" fill="#000" stroke-width="0"/><path id="p20" class="q-one" d="M 20 30L 22 30L 22 32L 20 32L 20 30 z" stroke-width="0" fill="#000"/><path id="p21" class="q-one" d="M 20 40L 22 40L 22 42L 20 42L 20 40 z" stroke-width="0" fill="#000"/><path id="p22" d="M 22 2L 24 2L 24 6L 22 6L 22 2 z" fill="#000" stroke-width="0"/><path id="p23" d="M 22 20L 24 20L 24 24L 22 24L 22 20 z" fill="#000" stroke-width="0"/><path id="p24" d="M 24 30L 28 30L 28 32L 26 32L 26 36L 24 36L 24 34L 22 34L 22 32L 24 32L 24 30 z" fill="#000" stroke-width="0"/><path id="p25" class="q-one" d="M 22 42L 24 42L 24 44L 22 44L 22 42 z" stroke-width="0" fill="#000"/><path id="p26" class="q-one" d="M 22 58L 24 58L 24 60L 22 60L 22 58 z" stroke-width="0" fill="#000"/><path id="p27" d="M 24 12L 28 12L 28 16L 26 16L 26 14L 24 14L 24 12 z" fill="#000" stroke-width="0"/><path id="p28" d="M 26 2L 34 2L 34 4L 38 4L 38 2L 44 2L 44 6L 42 6L 42 4L 40 4L 40 6L 34 6L 34 10L 36 10L 36 8L 40 8L 40 10L 38 10L 38 12L 32 12L 32 10L 30 10L 30 8L 32 8L 32 6L 30 6L 30 8L 28 8L 28 10L 26 10L 26 6L 28 6L 28 4L 26 4L 26 2 z" fill="#000" stroke-width="0"/><path id="p29" d="M 26 20L 34 20L 34 22L 36 22L 36 24L 34 24L 34 26L 32 26L 32 24L 30 24L 30 26L 28 26L 28 28L 26 28L 26 24L 28 24L 28 22L 26 22L 26 20 z" fill="#000" stroke-width="0"/><path id="p30" d="M 26 36L 32 36L 32 38L 34 38L 34 36L 36 36L 36 42L 34 42L 34 40L 30 40L 30 42L 28 42L 28 44L 26 44L 26 40L 28 40L 28 38L 26 38L 26 36 z" fill="#000" stroke-width="0"/><path id="p31" d="M 34 48L 36 48L 36 54L 34 54L 34 56L 30 56L 30 58L 28 58L 28 60L 26 60L 26 56L 28 56L 28 54L 26 54L 26 52L 32 52L 32 50L 34 50L 34 48 z" fill="#000" stroke-width="0"/><path id="p32" d="M 30 14L 32 14L 32 18L 30 18L 30 14 z" fill="#000" stroke-width="0"/><path id="p33" class="q-one" d="M 30 26L 32 26L 32 28L 30 28L 30 26 z" stroke-width="0" fill="#000"/><path id="p34" d="M 32 30L 34 30L 34 34L 30 34L 30 32L 32 32L 32 30 z" fill="#000" stroke-width="0"/><path id="p35" d="M 30 42L 34 42L 34 44L 30 44L 30 42 z" fill="#000" stroke-width="0"/><path id="p36" class="q-one" d="M 30 48L 32 48L 32 50L 30 50L 30 48 z" stroke-width="0" fill="#000"/><path id="p37" class="q-one" d="M 30 58L 32 58L 32 60L 30 60L 30 58 z" stroke-width="0" fill="#000"/><path id="p38" class="q-one" d="M 32 46L 34 46L 34 48L 32 48L 32 46 z" stroke-width="0" fill="#000"/><path id="p39" d="M 34 14L 36 14L 36 18L 34 18L 34 14 z" fill="#000" stroke-width="0"/><path id="p40" d="M 36 26L 40 26L 40 28L 38 28L 38 30L 34 30L 34 28L 36 28L 36 26 z" fill="#000" stroke-width="0"/><path id="p41" d="M 50 32L 54 32L 54 36L 52 36L 52 38L 54 38L 54 42L 52 42L 52 44L 54 44L 54 46L 52 46L 52 48L 54 48L 54 50L 52 50L 52 58L 56 58L 56 60L 48 60L 48 58L 50 58L 50 56L 48 56L 48 58L 42 58L 42 60L 40 60L 40 58L 38 58L 38 56L 36 56L 36 54L 38 54L 38 52L 40 52L 40 56L 46 56L 46 54L 48 54L 48 52L 46 52L 46 54L 42 54L 42 50L 40 50L 40 48L 42 48L 42 46L 38 46L 38 48L 36 48L 36 46L 34 46L 34 44L 36 44L 36 42L 38 42L 38 44L 42 44L 42 42L 46 42L 46 40L 48 40L 48 42L 50 42L 50 40L 48 40L 48 34L 50 34L 50 32M 44 44L 44 50L 50 50L 50 44L 44 44 z" fill="#000" stroke-width="0"/><path id="p42" d="M 36 20L 44 20L 44 22L 36 22L 36 20 z" fill="#000" stroke-width="0"/><path id="p43" class="q-one" d="M 36 34L 38 34L 38 36L 36 36L 36 34 z" stroke-width="0" fill="#000"/><path id="p44" d="M 38 12L 40 12L 40 16L 38 16L 38 12 z" fill="#000" stroke-width="0"/><path id="p45" class="q-one" d="M 38 30L 40 30L 40 32L 38 32L 38 30 z" stroke-width="0" fill="#000"/><path id="p46" class="q-one" d="M 38 40L 40 40L 40 42L 38 42L 38 40 z" stroke-width="0" fill="#000"/><path id="p47" class="q-one" d="M 40 6L 42 6L 42 8L 40 8L 40 6 z" stroke-width="0" fill="#000"/><path id="p48" d="M 42 8L 44 8L 44 18L 40 18L 40 16L 42 16L 42 8 z" fill="#000" stroke-width="0"/><path id="p49" d="M 44 22L 46 22L 46 26L 40 26L 40 24L 44 24L 44 22 z" fill="#000" stroke-width="0"/><path id="p50" class="q-one" d="M 40 32L 42 32L 42 34L 40 34L 40 32 z" stroke-width="0" fill="#000"/><path id="p51" d="M 40 36L 44 36L 44 38L 46 38L 46 40L 42 40L 42 38L 40 38L 40 36 z" fill="#000" stroke-width="0"/><path id="p52" d="M 48 24L 54 24L 54 26L 52 26L 52 30L 50 30L 50 32L 48 32L 48 30L 42 30L 42 28L 48 28L 48 24 z" fill="#000" stroke-width="0"/><path id="p53" class="q-one" d="M 44 18L 46 18L 46 20L 44 20L 44 18 z" stroke-width="0" fill="#000"/><path id="p54" class="q-sq" d="M 46 2L 60 2L 60 16L 46 16L 46 2M 48 4L 48 14L 58 14L 58 4L 48 4 z" stroke-width="0" fill="#000"/><path id="p55" d="M 48 18L 50 18L 50 20L 52 20L 52 18L 54 18L 54 22L 46 22L 46 20L 48 20L 48 18 z" fill="#000" stroke-width="0"/><path id="p56" class="q-one" d="M 46 46L 48 46L 48 48L 46 48L 46 46 z" stroke-width="0" fill="#000"/><path id="p57" class="q-sqf" d="M 50 6L 56 6L 56 12L 50 12L 50 6 z" stroke-width="0" fill="#000"/><path id="p58" d="M 54 22L 58 22L 58 28L 54 28L 54 26L 56 26L 56 24L 54 24L 54 22 z" fill="#000" stroke-width="0"/><path id="p59" class="q-one" d="M 54 30L 56 30L 56 32L 54 32L 54 30 z" stroke-width="0" fill="#000"/><path id="p60" class="q-one" d="M 54 36L 56 36L 56 38L 54 38L 54 36 z" stroke-width="0" fill="#000"/><path id="p61" d="M 56 46L 58 46L 58 48L 60 48L 60 50L 58 50L 58 52L 60 52L 60 54L 58 54L 58 58L 56 58L 56 54L 54 54L 54 50L 56 50L 56 46 z" fill="#000" stroke-width="0"/><path id="p62" class="q-one" d="M 56 18L 58 18L 58 20L 56 20L 56 18 z" stroke-width="0" fill="#000"/><path id="p63" d="M 56 32L 58 32L 58 34L 60 34L 60 38L 58 38L 58 36L 56 36L 56 32 z" fill="#000" stroke-width="0"/><path id="p64" class="q-one" d="M 56 38L 58 38L 58 40L 56 40L 56 38 z" stroke-width="0" fill="#000"/><path id="p65" class="q-one" d="M 56 42L 58 42L 58 44L 56 44L 56 42 z" stroke-width="0" fill="#000"/><path id="p66" class="q-one" d="M 58 20L 60 20L 60 22L 58 22L 58 20 z" stroke-width="0" fill="#000"/><path id="p67" class="q-one" d="M 58 28L 60 28L 60 30L 58 30L 58 28 z" stroke-width="0" fill="#000"/><path id="p68" class="q-one" d="M 58 44L 60 44L 60 46L 58 46L 58 44 z" stroke-width="0" fill="#000"/><g id="qr-images"/></g></svg>