<svg width="60" height="60" viewBox="0 0 60 60" fill="none" xmlns="http://www.w3.org/2000/svg">
<path fill-rule="evenodd" clip-rule="evenodd" d="M0 30C0 13.4315 13.4315 0 30 0C46.5685 0 60 13.4315 60 30C60 46.5685 46.5685 60 30 60C13.4315 60 0 46.5685 0 30Z" fill="white"/>
<path d="M30.047 12L29.8057 12.8201V36.6188L30.047 36.8597L41.0941 30.3298L30.047 12Z" fill="#343434"/>
<path d="M30.0471 12L19 30.3298L30.0471 36.8598V25.3086V12Z" fill="#8C8C8C"/>
<path d="M30.047 38.9514L29.911 39.1171V47.5947L30.047 47.9919L41.1007 32.4247L30.047 38.9514Z" fill="#3C3C3B"/>
<path d="M30.0471 47.9918V38.9512L19 32.4246L30.0471 47.9918Z" fill="#8C8C8C"/>
<path d="M30.047 36.8596L41.0939 30.3298L30.047 25.3087V36.8596Z" fill="#141414"/>
<path d="M19.0001 30.3299L30.047 36.8597V25.3087L19.0001 30.3299Z" fill="#393939"/>
</svg>
