<svg xmlns="http://www.w3.org/2000/svg" width="390px" height="390px" viewBox="0 0 62 62" xmlns:xlink="http://www.w3.org/1999/xlink" version="1.1"><g id="qr-qrcode" transform="translate(0,0)"><defs/><rect fill="#FFF" width="62px" height="62px" x="0" y="0" class="qr-bg"/><g id="qr-image_bg"/><path id="p0" class="q-sq" d="M 2 2L 16 2L 16 16L 2 16L 2 2M 4 4L 4 14L 14 14L 14 4L 4 4 z" stroke-width="0" fill="#000"/><path id="p1" d="M 2 18L 12 18L 12 20L 8 20L 8 22L 6 22L 6 20L 2 20L 2 18 z" fill="#000" stroke-width="0"/><path id="p2" d="M 2 24L 6 24L 6 28L 10 28L 10 30L 6 30L 6 32L 4 32L 4 26L 2 26L 2 24 z" fill="#000" stroke-width="0"/><path id="p3" d="M 2 34L 6 34L 6 38L 4 38L 4 44L 2 44L 2 34 z" fill="#000" stroke-width="0"/><path id="p4" class="q-sq" d="M 2 46L 16 46L 16 60L 2 60L 2 46M 4 48L 4 58L 14 58L 14 48L 4 48 z" stroke-width="0" fill="#000"/><path id="p5" class="q-sqf" d="M 6 6L 12 6L 12 12L 6 12L 6 6 z" stroke-width="0" fill="#000"/><path id="p6" d="M 6 38L 8 38L 8 40L 10 40L 10 42L 8 42L 8 44L 6 44L 6 38 z" fill="#000" stroke-width="0"/><path id="p7" class="q-sqf" d="M 6 50L 12 50L 12 56L 6 56L 6 50 z" stroke-width="0" fill="#000"/><path id="p8" d="M 22 28L 24 28L 24 34L 22 34L 22 32L 20 32L 20 34L 18 34L 18 38L 20 38L 20 40L 18 40L 18 44L 12 44L 12 40L 14 40L 14 42L 16 42L 16 40L 14 40L 14 38L 16 38L 16 36L 12 36L 12 40L 10 40L 10 38L 8 38L 8 36L 10 36L 10 34L 8 34L 8 32L 12 32L 12 30L 16 30L 16 32L 14 32L 14 34L 16 34L 16 32L 18 32L 18 30L 22 30L 22 28 z" fill="#000" stroke-width="0"/><path id="p9" d="M 10 22L 12 22L 12 24L 14 24L 14 26L 10 26L 10 22 z" fill="#000" stroke-width="0"/><path id="p10" class="q-one" d="M 12 20L 14 20L 14 22L 12 22L 12 20 z" stroke-width="0" fill="#000"/><path id="p11" d="M 14 18L 24 18L 24 20L 22 20L 22 24L 24 24L 24 22L 28 22L 28 24L 26 24L 26 28L 24 28L 24 26L 22 26L 22 28L 14 28L 14 26L 18 26L 18 24L 14 24L 14 22L 18 22L 18 20L 14 20L 14 18 z" fill="#000" stroke-width="0"/><path id="p12" d="M 20 2L 22 2L 22 6L 24 6L 24 4L 28 4L 28 6L 26 6L 26 10L 24 10L 24 8L 22 8L 22 10L 18 10L 18 8L 20 8L 20 6L 18 6L 18 4L 20 4L 20 2 z" fill="#000" stroke-width="0"/><path id="p13" d="M 18 12L 20 12L 20 16L 18 16L 18 12 z" fill="#000" stroke-width="0"/><path id="p14" d="M 18 44L 20 44L 20 48L 18 48L 18 44 z" fill="#000" stroke-width="0"/><path id="p15" d="M 18 50L 24 50L 24 58L 28 58L 28 60L 22 60L 22 52L 20 52L 20 60L 18 60L 18 50 z" fill="#000" stroke-width="0"/><path id="p16" d="M 20 36L 24 36L 24 38L 28 38L 28 40L 26 40L 26 42L 28 42L 28 44L 30 44L 30 46L 28 46L 28 52L 26 52L 26 44L 24 44L 24 42L 20 42L 20 40L 22 40L 22 38L 20 38L 20 36 z" fill="#000" stroke-width="0"/><path id="p17" d="M 22 10L 24 10L 24 16L 22 16L 22 10 z" fill="#000" stroke-width="0"/><path id="p18" class="q-one" d="M 22 44L 24 44L 24 46L 22 46L 22 44 z" stroke-width="0" fill="#000"/><path id="p19" d="M 26 10L 30 10L 30 12L 26 12L 26 10 z" fill="#000" stroke-width="0"/><path id="p20" d="M 26 14L 28 14L 28 16L 30 16L 30 18L 28 18L 28 20L 26 20L 26 14 z" fill="#000" stroke-width="0"/><path id="p21" d="M 26 28L 32 28L 32 30L 26 30L 26 28 z" fill="#000" stroke-width="0"/><path id="p22" d="M 26 32L 28 32L 28 36L 26 36L 26 32 z" fill="#000" stroke-width="0"/><path id="p23" d="M 28 2L 36 2L 36 4L 34 4L 34 8L 32 8L 32 4L 28 4L 28 2 z" fill="#000" stroke-width="0"/><path id="p24" class="q-one" d="M 28 6L 30 6L 30 8L 28 8L 28 6 z" stroke-width="0" fill="#000"/><path id="p25" class="q-one" d="M 28 20L 30 20L 30 22L 28 22L 28 20 z" stroke-width="0" fill="#000"/><path id="p26" d="M 30 34L 32 34L 32 38L 28 38L 28 36L 30 36L 30 34 z" fill="#000" stroke-width="0"/><path id="p27" class="q-one" d="M 28 40L 30 40L 30 42L 28 42L 28 40 z" stroke-width="0" fill="#000"/><path id="p28" d="M 34 8L 38 8L 38 10L 36 10L 36 12L 34 12L 34 14L 32 14L 32 16L 30 16L 30 12L 32 12L 32 10L 34 10L 34 8 z" fill="#000" stroke-width="0"/><path id="p29" d="M 30 18L 34 18L 34 22L 38 22L 38 24L 34 24L 34 26L 30 26L 30 22L 32 22L 32 20L 30 20L 30 18 z" fill="#000" stroke-width="0"/><path id="p30" d="M 30 46L 32 46L 32 48L 34 48L 34 54L 38 54L 38 56L 34 56L 34 58L 36 58L 36 60L 32 60L 32 58L 30 58L 30 56L 32 56L 32 54L 30 54L 30 52L 32 52L 32 50L 30 50L 30 46 z" fill="#000" stroke-width="0"/><path id="p31" class="q-one" d="M 32 30L 34 30L 34 32L 32 32L 32 30 z" stroke-width="0" fill="#000"/><path id="p32" class="q-one" d="M 32 42L 34 42L 34 44L 32 44L 32 42 z" stroke-width="0" fill="#000"/><path id="p33" class="q-one" d="M 34 14L 36 14L 36 16L 34 16L 34 14 z" stroke-width="0" fill="#000"/><path id="p34" class="q-one" d="M 34 28L 36 28L 36 30L 34 30L 34 28 z" stroke-width="0" fill="#000"/><path id="p35" d="M 38 28L 40 28L 40 32L 38 32L 38 34L 34 34L 34 32L 36 32L 36 30L 38 30L 38 28 z" fill="#000" stroke-width="0"/><path id="p36" d="M 34 38L 36 38L 36 42L 34 42L 34 38 z" fill="#000" stroke-width="0"/><path id="p37" d="M 50 38L 52 38L 52 42L 54 42L 54 46L 58 46L 58 48L 52 48L 52 58L 48 58L 48 56L 50 56L 50 52L 48 52L 48 54L 42 54L 42 52L 36 52L 36 50L 42 50L 42 44L 40 44L 40 48L 34 48L 34 46L 38 46L 38 44L 36 44L 36 42L 38 42L 38 40L 40 40L 40 42L 44 42L 44 40L 46 40L 46 42L 50 42L 50 38M 44 44L 44 50L 50 50L 50 44L 44 44 z" fill="#000" stroke-width="0"/><path id="p38" class="q-one" d="M 36 4L 38 4L 38 6L 36 6L 36 4 z" stroke-width="0" fill="#000"/><path id="p39" class="q-one" d="M 36 18L 38 18L 38 20L 36 20L 36 18 z" stroke-width="0" fill="#000"/><path id="p40" class="q-one" d="M 38 2L 40 2L 40 4L 38 4L 38 2 z" stroke-width="0" fill="#000"/><path id="p41" d="M 40 4L 44 4L 44 6L 42 6L 42 8L 38 8L 38 6L 40 6L 40 4 z" fill="#000" stroke-width="0"/><path id="p42" d="M 38 10L 42 10L 42 12L 38 12L 38 10 z" fill="#000" stroke-width="0"/><path id="p43" d="M 38 14L 40 14L 40 16L 42 16L 42 14L 44 14L 44 18L 46 18L 46 22L 44 22L 44 20L 42 20L 42 18L 38 18L 38 14 z" fill="#000" stroke-width="0"/><path id="p44" class="q-one" d="M 38 20L 40 20L 40 22L 38 22L 38 20 z" stroke-width="0" fill="#000"/><path id="p45" class="q-one" d="M 38 24L 40 24L 40 26L 38 26L 38 24 z" stroke-width="0" fill="#000"/><path id="p46" d="M 42 28L 46 28L 46 30L 52 30L 52 32L 46 32L 46 38L 44 38L 44 36L 38 36L 38 34L 40 34L 40 32L 42 32L 42 28 z" fill="#000" stroke-width="0"/><path id="p47" d="M 38 56L 42 56L 42 58L 40 58L 40 60L 38 60L 38 56 z" fill="#000" stroke-width="0"/><path id="p48" class="q-one" d="M 40 22L 42 22L 42 24L 40 24L 40 22 z" stroke-width="0" fill="#000"/><path id="p49" d="M 40 38L 44 38L 44 40L 40 40L 40 38 z" fill="#000" stroke-width="0"/><path id="p50" d="M 44 58L 48 58L 48 60L 44 60L 44 58 z" fill="#000" stroke-width="0"/><path id="p51" class="q-sq" d="M 46 2L 60 2L 60 16L 46 16L 46 2M 48 4L 48 14L 58 14L 58 4L 48 4 z" stroke-width="0" fill="#000"/><path id="p52" d="M 48 18L 50 18L 50 20L 52 20L 52 24L 50 24L 50 26L 48 26L 48 24L 46 24L 46 22L 48 22L 48 18 z" fill="#000" stroke-width="0"/><path id="p53" class="q-one" d="M 46 38L 48 38L 48 40L 46 40L 46 38 z" stroke-width="0" fill="#000"/><path id="p54" class="q-one" d="M 46 46L 48 46L 48 48L 46 48L 46 46 z" stroke-width="0" fill="#000"/><path id="p55" d="M 48 34L 52 34L 52 36L 50 36L 50 38L 48 38L 48 34 z" fill="#000" stroke-width="0"/><path id="p56" class="q-sqf" d="M 50 6L 56 6L 56 12L 50 12L 50 6 z" stroke-width="0" fill="#000"/><path id="p57" d="M 56 18L 58 18L 58 20L 60 20L 60 22L 58 22L 58 28L 50 28L 50 26L 56 26L 56 18 z" fill="#000" stroke-width="0"/><path id="p58" class="q-one" d="M 52 18L 54 18L 54 20L 52 20L 52 18 z" stroke-width="0" fill="#000"/><path id="p59" class="q-one" d="M 52 36L 54 36L 54 38L 52 38L 52 36 z" stroke-width="0" fill="#000"/><path id="p60" d="M 54 30L 58 30L 58 34L 60 34L 60 38L 58 38L 58 36L 54 36L 54 30 z" fill="#000" stroke-width="0"/><path id="p61" d="M 56 50L 58 50L 58 58L 54 58L 54 56L 56 56L 56 54L 54 54L 54 52L 56 52L 56 50 z" fill="#000" stroke-width="0"/><path id="p62" d="M 56 40L 58 40L 58 44L 56 44L 56 40 z" fill="#000" stroke-width="0"/><path id="p63" class="q-one" d="M 58 28L 60 28L 60 30L 58 30L 58 28 z" stroke-width="0" fill="#000"/><path id="p64" class="q-one" d="M 58 44L 60 44L 60 46L 58 46L 58 44 z" stroke-width="0" fill="#000"/><path id="p65" class="q-one" d="M 58 48L 60 48L 60 50L 58 50L 58 48 z" stroke-width="0" fill="#000"/><g id="qr-images"/></g></svg>