<svg width="591" height="1035" viewBox="0 0 591 1035" fill="none" xmlns="http://www.w3.org/2000/svg">
<path fill-rule="evenodd" clip-rule="evenodd" d="M591 1033.23V1041.69H584.347V1033.23V1017.97V1002.63V987.287V972.026V956.683V941.339V926.079L584.263 910.735V895.392V880.048V864.788V849.444V834.101V818.84V803.497V788.153V772.893V757.549V755.144H386.87V742.537V727.194V711.85V696.507V681.246L386.786 665.903V650.559V635.299V619.955V604.612V589.351V574.008V558.664V543.404V528.06V512.717V497.373V482.113V466.769V451.426V436.165V420.822V405.478V390.218V374.874V359.531L386.702 344.27V328.927V315.076L385.27 313.583L369.691 298.323L354.196 282.979L338.617 267.719L323.122 252.375L307.542 237.115L307.29 236.783V221.771V206.51L307.206 191.167V175.823V160.563V145.219V129.876V114.615V99.2719V83.9283V68.5848V53.3243V37.9808V22.6373V12.9337C304.006 12.1042 301.395 10.1137 299.711 7.37677C298.616 5.55219 298.026 3.4787 298.026 1.15643C298.026 -2.40985 299.627 -5.72736 302.153 -7.96674C304.342 -9.95721 307.29 -11.1183 310.49 -11.1183C313.69 -11.1183 316.637 -9.95721 318.827 -7.96674C321.353 -5.72736 323.037 -2.49286 323.037 1.15643C323.037 3.39569 322.364 5.55219 321.269 7.29388C319.669 10.0308 316.974 12.1042 313.858 12.9337V22.6373V37.9808V53.3243V68.5848V83.9283V99.2719V114.532V129.876V145.219V160.563V175.823V191.167V206.51V221.771V234.129L316.974 237.115L332.469 252.375L348.048 267.719L363.543 282.979L379.123 298.323L393.354 312.339V313.583V328.927V344.187L393.439 359.531V374.874V390.218V405.478V420.822V436.165V451.426V466.769V482.113V497.373V512.717V528.06V543.321V558.664V574.008V589.351V604.612V619.955V635.299V650.559V665.903L393.523 681.246V696.507V711.85V727.194V742.455V748.675L590.916 748.592V757.549V772.893V788.153V803.497V818.84V834.101V849.444V864.788V880.048V895.392V910.735V925.996V941.339V956.683V971.943V987.287V1002.63V1017.97L591 1033.23Z" fill="url(#paint0_linear)"/>
<path fill-rule="evenodd" clip-rule="evenodd" d="M563.884 1032.82V1041.69H557.231V1032.82V1022.12V1011.42V1000.64V989.941V979.242V968.543V957.761V947.062V936.363V925.664V914.965V904.183V893.484V882.785V872.086V861.305V850.606V839.907V829.208V818.509V807.727V797.028V786.329V785.168H359.754V776.293V765.594V754.895V744.113V733.414V722.715V712.016V701.235V690.536V679.837V669.138V658.439V647.657V636.958V626.259V615.56V604.778V594.079V583.38V572.681V561.899V551.2V540.501V529.802V519.103V508.321V497.622V486.923V476.224L359.67 465.442V454.743V444.044V433.346V422.647V411.865V401.166V390.467V379.768V369.069V358.287L359.67 347.588V336.889V328.512L357.312 326.19L346.448 315.491L335.669 304.792L324.806 294.093L313.942 283.477L303.079 272.778L292.216 262.079L281.437 251.38L280.173 250.219V240.681V229.982V219.283V208.584V197.802V187.103V176.404V165.705V154.923V144.224V133.525V122.826V112.044V101.346V90.6465V79.9476V69.2486V67.7557C275.71 66.5946 272.257 63.0283 271.247 58.5496C271.078 57.7203 270.994 56.8909 270.994 55.9786C270.994 49.1777 276.552 43.7037 283.458 43.7037C290.363 43.7037 295.921 49.1777 295.921 55.9786C295.921 56.8079 295.837 57.6373 295.668 58.4667C294.742 62.9453 291.289 66.5117 286.742 67.7557V69.1656V79.9476L286.826 90.6465V101.346V112.044V122.743V133.525V144.224V154.923V165.622V176.404V187.103V197.802V208.501V219.2V229.982V240.681V247.565L290.7 251.38L301.563 262.079L312.427 272.778L323.29 283.394L334.153 294.093L345.017 304.792L355.88 315.491L366.322 325.775V326.107V336.889V347.588L366.322 358.287V368.986V379.685V390.467V401.166V411.865V422.564V433.346V444.044V454.743V465.442V476.141V486.923V497.622L366.407 508.321V519.02V529.802V540.501V551.2V561.899V572.598V583.38V594.079V604.778V615.477V626.259V636.958V647.657V658.356V669.055V679.837V690.536V701.235V711.934V722.715V733.414V744.113V754.812V765.511V776.293V778.616H563.8V786.329L563.884 797.028V807.727V818.426V829.125V839.907V850.606V861.305V872.003V882.785V893.484V904.183V914.882V925.581V936.363V947.062V957.761V968.46V979.242V989.941V1000.64V1011.34V1022.04V1032.82Z" fill="url(#paint1_linear)"/>
<path fill-rule="evenodd" clip-rule="evenodd" d="M257.099 1034.48V1041.78H250.531V1034.4V1025.02V1015.57V1006.2L250.447 996.826V987.454V977.999V968.627V959.255V949.8V940.428V931.056V921.684V912.229V902.857V893.485V890.914H320.343V884.694L320.258 875.322V865.867V856.495V847.123V837.751V828.296V818.924V809.552V800.097V790.725V781.353V771.898V762.526V753.154V743.783V734.328V724.956V715.584V706.129V696.757V687.385V678.013V668.558V659.186V649.814V640.359V630.987V621.615V612.243V602.788V593.416V584.044V583.796L310.827 574.506L301.226 565.052L291.542 555.597L281.942 546.059L272.342 536.604L262.657 527.149L253.057 517.611L243.373 508.156L240.762 505.502L240.678 498.701V489.329V479.957L240.678 470.585V461.131V451.759V442.387V432.932V423.56V414.188V404.733V395.361V385.989V376.617V367.162V357.79V348.418V339.046V329.591V320.219V310.847V301.392V292.02V282.648V281.653C236.468 280.492 233.099 277.257 231.92 273.193C231.667 272.115 231.499 271.037 231.499 269.876C231.499 267.637 232.089 265.563 233.183 263.739C235.289 260.089 239.331 257.601 243.962 257.601C248.678 257.601 252.805 260.172 254.91 263.987C255.92 265.729 256.51 267.72 256.51 269.876C256.51 271.12 256.257 272.281 256.005 273.359C254.742 277.423 251.457 280.575 247.331 281.653V282.648V292.103V301.475V310.847V320.302V329.674V339.046V348.501V357.873V367.245V376.617V386.072V395.444V404.816V414.271V423.643V433.015V442.387V451.841V461.213V470.585L247.331 480.04V489.412V498.784V502.848L252.889 508.239L262.489 517.694L272.173 527.232L281.774 536.687L291.374 546.142L301.058 555.68L310.658 565.135L320.343 574.589L326.827 581.059V584.044L326.827 593.499V602.871V612.243V621.698V631.07V640.442L326.911 649.814V659.269V668.641V678.013V687.468V696.84V706.212V715.584V725.039V734.411V743.783V753.237V762.609V771.981V781.353V790.808V800.18V809.552V819.007V828.379V837.751V847.206V856.578V865.95V875.322V884.777V894.149V897.466H257.099V902.94V912.312V921.684V931.139V940.511V949.883V959.255V968.71V978.082V987.454V996.909V1006.28V1015.65V1025.11V1034.48Z" fill="url(#paint2_linear)"/>
<path fill-rule="evenodd" clip-rule="evenodd" d="M230.068 1031.24V1041.78H223.415V1031.24V1020.55V1009.85V999.148V988.366V977.667V966.968V956.269V945.57V934.788V924.089V913.39V902.691V891.909V881.21V870.511V864.54L293.227 864.457V859.564V848.865V838.083V827.384V816.685V805.986V795.287V784.505V773.806V763.107V752.408L293.142 741.626V730.927V720.228V709.529V698.747V688.048V677.349V666.65V655.951V645.169V634.47V623.772V613.073V602.291V597.231L287.5 591.592L276.637 580.976L265.774 570.277L254.994 559.578L244.131 548.879L233.268 538.263L222.404 527.564L213.646 518.938V516.865V506.166V495.467V484.685V473.986L213.646 463.287V452.588V441.806V431.107V420.408V409.709V399.01V388.228V377.529V366.83V356.131V345.432V336.475C212.215 336.06 210.951 335.48 209.773 334.65C206.572 332.494 204.467 328.845 204.467 324.698C204.467 324.449 204.467 324.2 204.467 323.951C204.72 319.141 207.92 314.994 212.299 313.252C213.73 312.672 215.331 312.34 216.931 312.34C218.531 312.34 220.046 312.672 221.478 313.252C225.857 314.911 229.057 319.058 229.394 323.868C229.394 324.117 229.394 324.449 229.394 324.698C229.394 328.762 227.373 332.411 224.173 334.65C222.994 335.48 221.646 336.06 220.215 336.475V345.349V356.048L220.299 366.83V377.529V388.228V398.927V409.709V420.408V431.107V441.806V452.505V463.287L220.299 473.986V484.685V495.384V506.166V516.201L220.889 516.865L231.752 527.564L242.615 538.18L253.479 548.879L264.342 559.578L275.205 570.277L285.984 580.893L296.848 591.592L299.795 594.494V602.291V612.99V623.772V634.47V645.169V655.868V666.65V677.349V688.048V698.747V709.446V720.228V730.927V741.626V752.325V763.107L299.879 773.806V784.505V795.204V805.903V816.685V827.384V838.083V848.782V859.564V870.263V871.009H230.068V881.21V891.909V902.608V913.39V924.089V934.788V945.487V956.186V966.968V977.667V988.366V999.065V1009.85V1020.55V1031.24Z" fill="url(#paint3_linear)"/>
<path fill-rule="evenodd" clip-rule="evenodd" d="M199.835 1033.82V1041.78H193.182V1033.82V1018.47V1003.21V987.868V972.525V957.181V941.921V926.577V911.234V895.973V880.63V865.286V850.026V834.682V833.687H262.994V819.256V803.912V788.652V773.308V757.965V742.704V727.361V712.017V696.757V681.413L262.91 666.07V650.726V635.466V620.122V608.096L259.626 604.779L244.047 589.518L228.551 574.258L212.972 558.914L197.477 543.654L183.414 529.886V528.31V513.05V497.706V482.363L183.414 467.019V451.758V436.415V421.072V405.811V390.467V375.124V359.863V347.423C181.393 346.842 179.624 345.847 178.193 344.52C175.751 342.281 174.235 339.129 174.235 335.563C174.235 333.24 174.908 331.084 176.087 329.176C178.277 325.693 182.235 323.288 186.698 323.288C191.246 323.288 195.204 325.61 197.393 329.176C198.572 331.001 199.246 333.24 199.246 335.563C199.246 339.129 197.73 342.281 195.288 344.52C193.772 345.847 192.003 346.842 190.067 347.423V359.781V375.124V390.467V405.811V421.072V436.415V451.758V467.019L190.067 482.363V497.706V512.967V527.149L191.246 528.31L206.825 543.571L222.32 558.914L237.899 574.175L253.394 589.518L268.973 604.779L269.563 605.359V620.122V635.466V650.726V666.07V681.413V696.674V712.017L269.647 727.361V742.621V757.965V773.308V788.652V803.912V819.256V834.599V840.239H199.751L199.835 849.943V865.286V880.63V895.973V911.234V926.577V941.921V957.181V972.525V987.868V1003.13V1018.47V1033.82Z" fill="url(#paint4_linear)"/>
<path fill-rule="evenodd" clip-rule="evenodd" d="M488.093 1041.11L488.767 1041.78H479.335L478.661 1041.11L467.882 1030.42L457.019 1019.72L449.355 1012.17V1009.02V998.319V987.62V976.921V966.222V955.44V944.741L449.271 934.042V923.343V912.561V901.862V898.793H515.209C516.22 895.31 518.746 892.407 521.946 890.914C523.546 890.168 525.315 889.753 527.251 889.753C529.104 889.753 530.788 890.168 532.388 890.914C536.599 892.739 539.546 896.803 539.715 901.53C539.715 901.696 539.715 901.862 539.715 902.028C539.715 906.341 537.525 910.073 534.157 912.312C532.136 913.639 529.778 914.386 527.251 914.386C524.725 914.386 522.367 913.639 520.43 912.312C517.904 910.736 516.051 908.248 515.209 905.345H455.924V912.561V923.26V934.042V944.741V955.44V966.139V976.921V987.62V998.319V1009.02V1009.52L466.366 1019.72L477.23 1030.42L488.093 1041.11Z" fill="url(#paint5_linear)"/>
<path fill-rule="evenodd" clip-rule="evenodd" d="M442.366 1036.14L448.008 1041.78H438.661L432.85 1036.06L423.25 1026.6L422.239 1025.61V1017.15V1007.77V998.402V988.947V979.575V970.203V960.748V951.376V942.004V932.632V923.177V913.805V904.433V894.978V885.606V876.234V866.862V860.891H466.535C466.872 859.812 467.293 858.817 467.882 857.822C470.072 854.256 474.03 851.85 478.493 851.85C483.125 851.85 487.167 854.339 489.356 857.988C490.367 859.812 491.041 861.969 491.041 864.208C491.041 865.286 490.872 866.365 490.535 867.443C489.104 872.668 484.304 876.483 478.493 876.483C472.767 876.483 467.966 872.668 466.535 867.443H428.892V876.317V885.689V895.061V904.433V913.888V923.26V932.632V942.087V951.459V960.831V970.203V979.658V989.03V998.402V1007.86V1017.23V1022.95L432.682 1026.68L442.366 1036.14Z" fill="url(#paint6_linear)"/>
<path fill-rule="evenodd" clip-rule="evenodd" d="M388.807 806.235C390.66 805.074 392.933 804.41 395.291 804.41C397.397 804.41 399.333 804.908 401.102 805.82C405.06 807.893 407.755 811.957 407.839 816.768C407.755 822.076 404.386 826.554 399.586 828.213C399.249 828.296 398.997 828.462 398.66 828.545V839.41V850.606V861.803V872.917V884.113V895.31V906.424V917.62V928.817V939.93V951.127V962.324V973.437V984.634V995.83V1006.94V1018.14V1029.34V1033.82L405.228 1040.29L406.744 1041.78H397.397L396.133 1040.53L392.007 1036.55V1029.5V1018.39V1007.19V995.996V984.883V973.686V962.489V951.376V940.179V928.983V917.869V906.672V895.476V884.362V873.165V861.969V850.772V839.659V828.545L391.839 828.462C386.87 827.052 383.249 822.822 382.828 817.597C382.828 817.348 382.828 817.017 382.828 816.768C382.828 812.289 385.186 808.391 388.807 806.235Z" fill="url(#paint7_linear)"/>
<path fill-rule="evenodd" clip-rule="evenodd" d="M296.511 999.148C297.268 993.176 302.49 988.532 308.89 988.532C314.869 988.532 319.921 992.762 321.1 998.319C321.269 999.148 321.353 999.977 321.353 1000.81C321.353 1004.29 319.837 1007.44 317.479 1009.68C315.963 1011.01 314.195 1012 312.174 1012.58V1020.96V1032.16V1041.78H305.521V1032.41V1021.21V1012.58C303.837 1012.09 302.237 1011.26 300.89 1010.18C298.111 1007.94 296.342 1004.62 296.342 1000.81C296.342 1000.23 296.426 999.729 296.511 999.148Z" fill="url(#paint8_linear)"/>
<path fill-rule="evenodd" clip-rule="evenodd" d="M272.51 932.964V929.646H348.974V930.393V941.589V952.786V963.899V975.096L349.059 986.293V997.406V1008.6V1019.8V1030.91V1041.78H342.406V1031.16V1019.97V1008.85V997.655V986.458L342.322 975.345V964.148V952.952V941.838V936.198H279.163V943.911V955.025V966.222V977.418V988.532V999.729V1010.93V1022.12V1033.24V1041.78H272.51V1041.53V1033.48V1022.29V1011.09V999.977V988.781V977.584V966.47V955.274V944.077V932.964Z" fill="url(#paint9_linear)"/>
<path fill-rule="evenodd" clip-rule="evenodd" d="M170.108 1033.82V1041.78L163.456 1041.86V1033.82V1018.55V1003.21V987.867V972.607V957.263V941.92V926.659V911.316V897.548L161.855 895.972L146.36 880.712L130.781 865.368L115.286 850.108L99.707 834.764L84.212 819.504L83.9594 819.255L83.9594 804.16V788.9V773.556V758.213V742.952V727.609V712.265V705.879H211.035C212.467 700.654 217.267 696.839 222.993 696.839C229.899 696.839 235.541 702.313 235.541 709.114C235.541 710.109 235.373 711.104 235.12 712.099C233.773 717.407 228.888 721.388 222.993 721.388C217.267 721.388 212.467 717.573 211.035 712.348L90.5279 712.431L90.6121 727.609V742.869V758.213V773.556V788.9V804.16L90.6121 816.518L93.5595 819.504L109.139 834.764L124.634 850.108L140.213 865.368L155.708 880.712L170.108 894.811V895.972V911.316V926.576V941.92V957.263V972.607V987.867V1003.21V1018.55V1033.82Z" fill="url(#paint10_linear)"/>
<path fill-rule="evenodd" clip-rule="evenodd" d="M143.077 1033.9V1041.86H136.424V1033.9V1018.55V1003.29V987.95V972.607L136.34 957.263V942.003V926.659V911.316V910.901L121.266 896.055L105.687 880.712L90.1916 865.451L74.6124 850.191L59.1173 834.847L56.8436 832.691V819.587L56.8436 804.243V788.9V773.556V758.296V742.952V727.609V712.348V697.005V681.661V667.977H162.361C162.53 667.396 162.698 666.815 162.951 666.235C164.888 661.922 169.267 658.936 174.319 658.936C179.372 658.936 183.751 661.922 185.688 666.152C186.446 667.728 186.783 669.386 186.783 671.211C186.783 675.524 184.593 679.339 181.141 681.495C179.204 682.739 176.846 683.486 174.319 683.486C171.793 683.486 169.519 682.822 167.582 681.495C165.056 679.92 163.203 677.431 162.361 674.529H63.4964V681.661V697.005L63.4964 712.348V727.609V742.952V758.296V773.556V788.9V804.243V819.504V829.954L68.4649 834.847L84.0441 850.191L99.5391 865.451L115.118 880.712L130.613 896.055L142.992 908.247V911.316V926.659V942.003V957.263V972.607V987.95L143.077 1003.21V1018.55V1033.9Z" fill="url(#paint11_linear)"/>
<path fill-rule="evenodd" clip-rule="evenodd" d="M112.844 1041.78V1041.86H106.191V1033.07V1023.7V1014.32V1004.95V995.498V986.126V976.754V967.299V957.927V948.555V939.183V929.728V921.849L104.591 920.356L94.9913 910.818L85.3912 901.363L75.7068 891.908L66.1066 882.371L56.4222 872.916L46.8221 863.461L37.2219 853.923L27.5376 844.468L26.6954 843.639V835.096V825.641V816.269V806.897V797.525L26.6112 788.07V778.698V769.326V759.871V750.5V741.128V731.756V722.301V712.929V703.557L26.6112 694.102V684.73V675.358V665.903V656.531V647.159V637.787V628.332V618.96V609.588V600.133V590.761V581.389V572.017V562.562V554.849C25.2638 554.518 24.0007 553.937 22.9059 553.191C19.7901 551.034 17.6848 547.634 17.4321 543.736C17.4321 543.487 17.4321 543.321 17.4321 543.072C17.4321 539.672 18.8637 536.603 21.1375 534.364C23.327 532.124 26.4428 530.797 29.8955 530.797C33.4324 530.797 36.6324 532.207 38.9062 534.53C41.0957 536.686 42.4431 539.755 42.4431 543.072C42.4431 543.321 42.3589 543.653 42.3589 543.901C42.1062 547.883 39.9167 551.283 36.8009 553.273C35.7061 553.937 34.5272 554.518 33.264 554.849V562.645V572.017V581.472V590.844V600.216V609.588V619.043V628.415V637.787V647.242V656.614V665.986V675.358V684.813V694.185L33.264 703.557V713.012V722.384V731.756V741.21V750.582V759.954V769.326V778.781V788.153V797.525V806.98L33.3482 816.352V825.724V835.096V840.902L37.0535 844.551L46.6537 854.006L56.338 863.544L65.9382 872.999L75.5384 882.536L85.2227 891.991L94.8229 901.446L104.423 910.901L112.76 919.112V920.439L112.76 929.811V939.183V948.638V958.01V967.382V976.754L112.844 986.209V995.581V1004.95V1014.41V1023.78V1033.15V1041.78Z" fill="url(#paint12_linear)"/>
<path fill-rule="evenodd" clip-rule="evenodd" d="M57.5167 962.323C58.6957 956.766 63.7484 952.536 69.7275 952.453C75.5381 952.453 80.3382 956.351 81.7699 961.576C82.1067 962.572 82.1909 963.65 82.1909 964.811C82.1909 967.88 81.0962 970.699 79.1593 972.773C77.5592 974.597 75.4539 975.924 73.096 976.588V984.218V995.332V1006.53V1017.73V1028.84V1040.04V1041.86H66.4432V1040.28V1029.09V1017.89V1006.78V995.581V984.384V976.588C64.3379 976.007 62.401 974.929 60.8852 973.436C58.6957 971.197 57.264 968.211 57.264 964.811C57.264 963.981 57.3483 963.152 57.5167 962.323Z" fill="url(#paint13_linear)"/>
<path fill-rule="evenodd" clip-rule="evenodd" d="M46.0638 1031.91V1041.86H39.4111V1031.91V1021.21V1010.51V999.811V989.029V978.33L39.3269 967.631V956.932V946.15V935.7C39.0743 935.617 38.8216 935.534 38.569 935.451C33.9374 933.875 30.5689 929.728 30.232 924.752C30.232 924.503 30.1478 924.171 30.1478 923.923C30.1478 919.859 32.1689 916.292 35.2847 914.053C37.3058 912.56 39.9164 911.648 42.6954 911.648C45.4743 911.648 48.0007 912.477 50.0218 913.97C53.1376 916.209 55.1587 919.859 55.1587 923.923C55.1587 924.171 55.1587 924.42 55.1587 924.669C54.8218 929.645 51.4534 933.792 46.9059 935.451C46.5691 935.534 46.3165 935.617 45.9796 935.7V946.15V956.849V967.631L45.9796 978.33V989.029V999.728V1010.43V1021.21L46.0638 1031.91Z" fill="url(#paint14_linear)"/>
<path fill-rule="evenodd" clip-rule="evenodd" d="M15.8319 1031.99V1041.86H9.17911V1031.99L9.17911 1021.29V1010.59V999.893L9.17911 989.195V978.413L9.17911 967.714V957.015V946.316L9.17911 935.534V924.835V914.136L9.17911 906.34C7.15802 905.759 5.38957 904.764 3.95796 903.437C1.51582 901.198 0 898.046 0 894.48C0 893.899 0 893.318 0.0842113 892.738C0.926332 886.766 6.14748 882.205 12.4634 882.205C18.6951 882.205 23.9162 886.766 24.7583 892.655C24.8425 893.236 24.9268 893.899 24.9268 894.48C24.9268 898.046 23.4109 901.115 21.053 903.354C19.5372 904.764 17.7687 905.759 15.7476 906.257L15.7476 914.136V924.835V935.534L15.7476 946.233V957.015V967.714L15.7476 978.413V989.112L15.8319 999.893V1010.59V1021.29L15.8319 1031.99Z" fill="url(#paint15_linear)"/>
<defs>
<linearGradient id="paint0_linear" x1="591" y1="515.288" x2="298.026" y2="515.288" gradientUnits="userSpaceOnUse">
<stop stop-color="#FF5C00"/>
<stop offset="0.697917" stop-color="#66FFCC"/>
<stop offset="1" stop-color="#FF003D" stop-opacity="0"/>
</linearGradient>
<linearGradient id="paint1_linear" x1="563.884" y1="542.699" x2="270.994" y2="542.699" gradientUnits="userSpaceOnUse">
<stop stop-color="#FF5C00"/>
<stop offset="0.697917" stop-color="#66FFCC"/>
<stop offset="1" stop-color="#FF003D" stop-opacity="0"/>
</linearGradient>
<linearGradient id="paint2_linear" x1="326.911" y1="649.69" x2="231.499" y2="649.69" gradientUnits="userSpaceOnUse">
<stop stop-color="#FF5C00"/>
<stop offset="0.697917" stop-color="#66FFCC"/>
<stop offset="1" stop-color="#FF003D" stop-opacity="0"/>
</linearGradient>
<linearGradient id="paint3_linear" x1="299.879" y1="677.059" x2="204.467" y2="677.059" gradientUnits="userSpaceOnUse">
<stop stop-color="#FF5C00"/>
<stop offset="0.697917" stop-color="#66FFCC"/>
<stop offset="1" stop-color="#FF003D" stop-opacity="0"/>
</linearGradient>
<linearGradient id="paint4_linear" x1="269.647" y1="682.533" x2="174.235" y2="682.533" gradientUnits="userSpaceOnUse">
<stop stop-color="#FF5C00"/>
<stop offset="0.697917" stop-color="#66FFCC"/>
<stop offset="1" stop-color="#FF003D" stop-opacity="0"/>
</linearGradient>
<linearGradient id="paint5_linear" x1="539.715" y1="965.766" x2="449.271" y2="965.766" gradientUnits="userSpaceOnUse">
<stop stop-color="#FF5C00"/>
<stop offset="0.697917" stop-color="#66FFCC"/>
<stop offset="1" stop-color="#FF003D" stop-opacity="0"/>
</linearGradient>
<linearGradient id="paint6_linear" x1="491.041" y1="946.814" x2="422.239" y2="946.814" gradientUnits="userSpaceOnUse">
<stop stop-color="#FF5C00"/>
<stop offset="0.697917" stop-color="#66FFCC"/>
<stop offset="1" stop-color="#FF003D" stop-opacity="0"/>
</linearGradient>
<linearGradient id="paint7_linear" x1="407.839" y1="923.094" x2="382.828" y2="923.094" gradientUnits="userSpaceOnUse">
<stop stop-color="#FF5C00"/>
<stop offset="0.697917" stop-color="#66FFCC"/>
<stop offset="1" stop-color="#FF003D" stop-opacity="0"/>
</linearGradient>
<linearGradient id="paint8_linear" x1="321.353" y1="1015.15" x2="296.342" y2="1015.15" gradientUnits="userSpaceOnUse">
<stop stop-color="#FF5C00"/>
<stop offset="0.697917" stop-color="#66FFCC"/>
<stop offset="1" stop-color="#FF003D" stop-opacity="0"/>
</linearGradient>
<linearGradient id="paint9_linear" x1="349.059" y1="985.712" x2="272.51" y2="985.712" gradientUnits="userSpaceOnUse">
<stop stop-color="#FF5C00"/>
<stop offset="0.697917" stop-color="#66FFCC"/>
<stop offset="1" stop-color="#FF003D" stop-opacity="0"/>
</linearGradient>
<linearGradient id="paint10_linear" x1="235.541" y1="869.349" x2="83.9594" y2="869.349" gradientUnits="userSpaceOnUse">
<stop stop-color="#FF5C00"/>
<stop offset="0.697917" stop-color="#66FFCC"/>
<stop offset="1" stop-color="#FF003D" stop-opacity="0"/>
</linearGradient>
<linearGradient id="paint11_linear" x1="186.783" y1="850.398" x2="56.8436" y2="850.398" gradientUnits="userSpaceOnUse">
<stop stop-color="#FF5C00"/>
<stop offset="0.697917" stop-color="#66FFCC"/>
<stop offset="1" stop-color="#FF003D" stop-opacity="0"/>
</linearGradient>
<linearGradient id="paint12_linear" x1="112.844" y1="786.329" x2="17.4321" y2="786.329" gradientUnits="userSpaceOnUse">
<stop stop-color="#FF5C00"/>
<stop offset="0.697917" stop-color="#66FFCC"/>
<stop offset="1" stop-color="#FF003D" stop-opacity="0"/>
</linearGradient>
<linearGradient id="paint13_linear" x1="82.1909" y1="997.157" x2="57.264" y2="997.157" gradientUnits="userSpaceOnUse">
<stop stop-color="#FF5C00"/>
<stop offset="0.697917" stop-color="#66FFCC"/>
<stop offset="1" stop-color="#FF003D" stop-opacity="0"/>
</linearGradient>
<linearGradient id="paint14_linear" x1="55.1587" y1="976.754" x2="30.1478" y2="976.754" gradientUnits="userSpaceOnUse">
<stop stop-color="#FF5C00"/>
<stop offset="0.697917" stop-color="#66FFCC"/>
<stop offset="1" stop-color="#FF003D" stop-opacity="0"/>
</linearGradient>
<linearGradient id="paint15_linear" x1="24.9268" y1="962.032" x2="0" y2="962.032" gradientUnits="userSpaceOnUse">
<stop stop-color="#FF5C00"/>
<stop offset="0.697917" stop-color="#66FFCC"/>
<stop offset="1" stop-color="#FF003D" stop-opacity="0"/>
</linearGradient>
</defs>
</svg>
