<svg width="154" height="25" viewBox="0 0 154 25" fill="none" xmlns="http://www.w3.org/2000/svg">
<path fill-rule="evenodd" clip-rule="evenodd" d="M9.51363 15.9776H0V9.51929H9.51363H19.8267H30.1398H40.4529H50.766H61.159H71.4721H81.7852H92.0983H102.491H112.804H123.118H130.632C131.192 7.55728 132.151 5.84052 133.431 4.45076C135.589 2.08 138.627 0.60849 142.065 0.60849C142.624 0.60849 143.184 0.60849 143.744 0.690239C149.5 1.50774 153.897 6.57628 153.897 12.7076C153.897 18.7571 149.5 23.8256 143.824 24.6431C143.264 24.7249 142.624 24.8066 142.065 24.8066C138.627 24.8066 135.669 23.3351 133.511 21.0461C132.151 19.5746 131.192 17.8578 130.712 15.8958H123.118H112.804H102.491H92.1782H81.7852H71.4721H61.159H50.8459L40.4529 15.9776H30.1398H19.8267H9.51363Z" fill="url(#paint0_linear)"/>
<defs>
<linearGradient id="paint0_linear" x1="76.9484" y1="24.8066" x2="76.9484" y2="0.60849" gradientUnits="userSpaceOnUse">
<stop stop-color="#FF03C8"/>
<stop offset="1" stop-color="#FF0000" stop-opacity="0"/>
</linearGradient>
</defs>
</svg>
