<svg width="1015" height="575" viewBox="0 0 1015 575" fill="none" xmlns="http://www.w3.org/2000/svg">
<path fill-rule="evenodd" clip-rule="evenodd" d="M8.31469 574.334H0.160156V567.876H8.31469H23.0248H37.8149H52.605H67.3152H82.1052H96.8953H111.605L126.396 567.794H141.186H155.976H170.686H185.476H200.266H214.976H229.766H244.556H259.267H274.057H276.375V376.171H288.527H303.317H318.107H332.897H347.607L362.397 376.089H377.188H391.898H406.688H421.478H436.188H450.978H465.768H480.478H495.268H510.058H524.849H539.559H554.349H569.139H583.849H598.639H613.429H628.139H642.929H657.72L672.43 376.007H687.22H700.571L702.01 374.617L716.72 359.493L731.51 344.451L746.22 329.327L761.01 314.285L775.72 299.162L776.04 298.916H790.511H805.221L820.011 298.835H834.801H849.511H864.301H879.091H893.801H908.591H923.382H938.172H952.882H967.672H982.462H991.816C992.615 295.728 994.534 293.194 997.172 291.559C998.931 290.496 1000.93 289.924 1003.17 289.924C1006.61 289.924 1009.8 291.477 1011.96 293.929C1013.88 296.055 1015 298.916 1015 302.023C1015 305.129 1013.88 307.991 1011.96 310.116C1009.8 312.569 1006.69 314.204 1003.17 314.204C1001.01 314.204 998.931 313.55 997.252 312.487C994.614 310.934 992.615 308.318 991.816 305.293H982.462H967.672H952.882H938.172H923.382H908.591H893.881H879.091H864.301H849.511H834.801H820.011H805.221H790.511H778.599L775.72 308.318L761.01 323.36L746.22 338.484L731.51 353.526L716.72 368.65L703.209 382.465H702.01H687.22H672.51L657.72 382.547H642.929H628.139H613.429H598.639H583.849H569.139H554.349H539.559H524.849H510.058H495.268H480.558H465.768H450.978H436.188H421.478H406.688H391.898H377.188H362.397L347.607 382.629H332.897H318.107H303.317H288.607H282.611L282.691 574.252H274.057H259.267H244.556H229.766H214.976H200.266H185.476H170.686H155.976H141.186H126.396H111.685H96.8953H82.1052H67.3951H52.605H37.8149H23.0248L8.31469 574.334Z" fill="url(#paint0_linear)"/>
<path fill-rule="evenodd" clip-rule="evenodd" d="M8.71443 548.01H0.160156V541.552H8.71443H19.0275H29.3406H39.7337H50.0467H60.3598H70.6729H81.066H91.3791H101.692H112.005H122.318H132.711H143.024H153.338H163.651H174.044H184.357H194.67H204.983H215.296H225.689H236.002H246.315H247.435V349.847H255.989H266.302H276.615H287.008H297.321H307.634H317.947H328.34H338.653H348.967H359.28H369.593H379.986H390.299H400.612H410.925H421.318H431.631H441.944H452.257H462.65H472.963H483.277H493.59H503.903H514.296H524.609H534.922H545.235L555.628 349.765H565.941H576.254H586.567H596.88H607.273H617.587H627.9H638.213H648.526H658.919H669.232H679.545H687.62L689.858 347.476L700.171 336.93L710.484 326.466L720.797 315.921L731.031 305.375L741.344 294.829L751.657 284.283L761.97 273.819L763.089 272.593H772.283H782.596H792.909H803.222H813.615H823.928H834.241H844.555H854.948H865.261H875.574H885.887H896.28H906.593H916.906H927.219H937.532H938.971C940.091 268.26 943.528 264.908 947.845 263.927C948.645 263.764 949.444 263.682 950.324 263.682C956.879 263.682 962.156 269.077 962.156 275.781C962.156 282.485 956.879 287.88 950.324 287.88C949.524 287.88 948.725 287.798 947.925 287.635C943.608 286.736 940.171 283.384 938.971 278.969H937.612H927.219L916.906 279.051H906.593H896.28H885.967H875.574H865.261H854.948H844.635H834.241H823.928H813.615H803.302H792.989H782.596H772.283H765.647L761.97 282.812L751.657 293.357L741.344 303.903L731.111 314.449L720.797 324.995L710.484 335.541L700.171 346.086L690.258 356.224H689.938H679.545H669.232H658.919H648.606H638.293H627.9H617.587H607.273H596.96H586.567H576.254H565.941H555.628H545.315H534.922H524.609L514.296 356.305H503.983H493.59H483.277H472.963H462.65H452.337H441.944H431.631H421.318H411.005H400.612H390.299H379.986H369.673H359.36H348.967H338.653H328.34H318.027H307.634H297.321H287.008H276.695H266.382H255.989H253.75V547.929H246.315L236.002 548.01H225.689H215.376H205.063H194.67H184.357H174.044H163.731H153.338H143.024H132.711H122.398H112.085H101.692H91.3791H81.066H70.7529H60.3598H50.0467H39.7337H29.4206H19.1075H8.71443Z" fill="url(#paint1_linear)"/>
<path fill-rule="evenodd" clip-rule="evenodd" d="M7.11512 250.193H0.079834V243.816H7.19507H16.229H25.3429H34.3769L43.4108 243.734H52.4448H61.5587H70.5926H79.6266H88.7404H97.7744H106.808H115.842H124.956H133.99H143.024H145.502V311.587H151.498L160.532 311.506H169.646H178.68H187.714H196.748H205.862H214.896H223.93H233.044H242.078H251.112H260.226H269.26H278.293H287.327H296.441H305.475H314.509H323.623H332.657H341.691H350.725H359.839H368.873H377.907H387.021H396.055H405.089H414.122H423.236H432.27H441.304H441.544L450.498 302.35L459.612 293.03L468.726 283.629L477.92 274.309L487.034 264.99L496.148 255.588L505.341 246.269L514.455 236.867L517.014 234.333L523.569 234.251H532.603H541.637H550.671H559.785H568.819H577.853H586.967H596.001H605.035H614.148H623.182H632.216H641.25H650.364H659.398H668.432H677.466H686.58H695.614H704.648H713.762H722.796H731.83H732.789C733.908 230.164 737.026 226.894 740.944 225.749C741.983 225.504 743.022 225.341 744.141 225.341C746.3 225.341 748.299 225.913 750.057 226.976C753.575 229.019 755.974 232.943 755.974 237.44C755.974 242.018 753.495 246.023 749.818 248.067C748.139 249.048 746.22 249.62 744.141 249.62C742.942 249.62 741.823 249.375 740.784 249.13C736.866 247.904 733.828 244.715 732.789 240.71H731.83H722.716H713.682H704.648H695.534H686.5H677.466H668.352H659.318H650.284H641.25H632.136H623.103H614.069H604.955H595.921H586.887H577.853H568.739H559.705H550.671H541.557H532.523H523.489H519.572L514.375 246.105L505.261 255.425L496.068 264.826L486.954 274.146L477.84 283.465L468.646 292.867L459.532 302.186L450.418 311.587L444.182 317.882H441.304H432.19H423.156H414.122H405.009H395.975H386.941L377.907 317.964H368.793H359.759H350.725H341.611H332.577H323.543H314.509H305.395H296.361H287.327H278.214H269.18H260.146H251.112H241.998H232.964H223.93H214.816H205.782H196.748H187.634H178.6H169.566H160.532H151.418H142.385H139.187V250.193H133.91H124.876H115.842H106.728H97.6945H88.6605H79.6266H70.5127H61.4787H52.4448H43.3309H34.2969H25.263H16.1491H7.11512Z" fill="url(#paint2_linear)"/>
<path fill-rule="evenodd" clip-rule="evenodd" d="M10.233 223.951H0.079834V217.493H10.233H20.5461H30.8592H41.1723H51.5653H61.8784H72.1915H82.5046H92.8177H103.211H113.524H123.837H134.15H144.543H154.856H165.169H170.925L171.005 285.264H175.722H186.035H196.428H206.741H217.054H227.368H237.681H248.074H258.387H268.7H279.013L289.406 285.182H299.719H310.032H320.345H330.738H341.051H351.364H361.678H371.991H382.384H392.697H403.01H413.323H423.716H428.593L434.029 279.705L444.262 269.159L454.575 258.613L464.888 248.149L475.202 237.603L485.435 227.058L495.748 216.512L504.062 208.01H506.061H516.374H526.687H537.08H547.393H557.706H568.019H578.412H588.725H599.039H609.352H619.665H630.058H640.371H650.684H660.997H671.31H679.944C680.344 206.62 680.904 205.394 681.703 204.249C683.782 201.143 687.299 199.099 691.297 199.099C691.537 199.099 691.776 199.099 692.016 199.099C696.653 199.344 700.65 202.451 702.329 206.702C702.889 208.091 703.209 209.645 703.209 211.198C703.209 212.751 702.889 214.223 702.329 215.613C700.73 219.864 696.733 222.97 692.096 223.297C691.856 223.297 691.537 223.297 691.297 223.297C687.379 223.297 683.862 221.335 681.703 218.229C680.904 217.084 680.344 215.776 679.944 214.386H671.39H661.077L650.684 214.468H640.371H630.058H619.745H609.352H599.039H588.725H578.412H568.099H557.706H547.393H537.08H526.767H516.374H506.7L506.061 215.04L495.748 225.586L485.515 236.132L475.202 246.678L464.888 257.224L454.575 267.769L444.342 278.234L434.029 288.779L431.231 291.641H423.716H413.403H403.01H392.697H382.384H372.071H361.678H351.364H341.051H330.738H320.425H310.032H299.719H289.406H279.093H268.7L258.387 291.722H248.074H237.761H227.447H217.054H206.741H196.428H186.115H175.722H165.409H164.69V223.951H154.856H144.543H134.23H123.837H113.524H103.211H92.8976H82.5846H72.1915H61.8784H51.5653H41.2522H30.8592H20.5461H10.233Z" fill="url(#paint3_linear)"/>
<path fill-rule="evenodd" clip-rule="evenodd" d="M7.75469 194.603H0.079834V188.144H7.75469H22.5448H37.2549H52.045H66.8351H81.6252H96.3354H111.125H125.916H140.626H155.416H170.206H184.916H199.706H200.665V255.915H214.576H229.366H244.076H258.866H273.657H288.367H303.157H317.947H332.657H347.447L362.237 255.834H377.027H391.737H406.528H418.12L421.318 252.645L436.028 237.522L450.738 222.479L465.528 207.356L480.238 192.313L493.509 178.661H495.028H509.738H524.529H539.319H554.109H568.819H583.609H598.399H613.109H627.899H642.689H657.399H669.391C669.951 176.699 670.91 174.982 672.19 173.593C674.348 171.222 677.386 169.75 680.824 169.75C683.062 169.75 685.141 170.404 686.98 171.549C690.337 173.674 692.656 177.517 692.656 181.849C692.656 186.264 690.417 190.106 686.98 192.232C685.221 193.376 683.062 194.03 680.824 194.03C677.386 194.03 674.348 192.559 672.19 190.188C670.91 188.716 669.951 187 669.391 185.119H657.479H642.689H627.899H613.109H598.399H583.609H568.819H554.109H539.319H524.529H509.818H496.148L495.028 186.264L480.318 201.388L465.528 216.43L450.818 231.554L436.028 246.596L421.318 261.72L420.758 262.292H406.528H391.737H377.027H362.237H347.447H332.737H317.947L303.157 262.374H288.447H273.657H258.866H244.076H229.366H214.576H199.786H194.35V194.521L184.996 194.603H170.206H155.416H140.626H125.916H111.125H96.3354H81.6252H66.8351H52.045H37.3349H22.5448H7.75469Z" fill="url(#paint4_linear)"/>
<path fill-rule="evenodd" clip-rule="evenodd" d="M0.719405 474.435L0.079834 475.089V465.933L0.719405 465.279L11.0325 454.814L21.3456 444.269L28.6207 436.829H31.6587H41.9718H52.2849H62.5979H72.911H83.3041H93.6172L103.93 436.748H114.243H124.636H134.949H137.907V500.758C141.265 501.739 144.063 504.192 145.502 507.298C146.222 508.852 146.622 510.568 146.622 512.449C146.622 514.247 146.222 515.882 145.502 517.435C143.744 521.523 139.826 524.384 135.269 524.548C135.109 524.548 134.949 524.548 134.79 524.548C130.632 524.548 127.035 522.422 124.876 519.152C123.597 517.19 122.878 514.901 122.878 512.449C122.878 509.996 123.597 507.707 124.876 505.827C126.395 503.374 128.794 501.576 131.592 500.758V443.206H124.636H114.323H103.93H93.6172H83.3041H72.991H62.5979H52.2849H41.9718H31.6587H31.179L21.3456 453.343L11.0325 463.889L0.719405 474.435Z" fill="url(#paint5_linear)"/>
<path fill-rule="evenodd" clip-rule="evenodd" d="M5.51619 430.044L0.079834 435.522V426.447L5.59614 420.807L14.71 411.487L15.6694 410.506H23.8239H32.8579H41.8918H51.0057H60.0397H69.0736H78.1875H87.2215H96.2554H105.289H114.403H123.437H132.471H141.585H150.619H159.653H168.687H174.443V453.507C175.482 453.834 176.442 454.243 177.401 454.815C180.839 456.94 183.157 460.783 183.157 465.115C183.157 469.612 180.759 473.536 177.241 475.661C175.482 476.642 173.404 477.296 171.245 477.296C170.206 477.296 169.167 477.133 168.127 476.806C163.091 475.416 159.413 470.756 159.413 465.115C159.413 459.556 163.091 454.897 168.127 453.507V416.964H159.573H150.539H141.505H132.471H123.357H114.323H105.289H96.1755H87.1415H78.1076H69.0736H59.9597H50.9258H41.8918H32.7779H23.744H18.2277L14.6301 420.643L5.51619 430.044Z" fill="url(#paint6_linear)"/>
<path fill-rule="evenodd" clip-rule="evenodd" d="M227.128 378.051C228.247 379.85 228.887 382.057 228.887 384.346C228.887 386.39 228.407 388.27 227.527 389.987C225.529 393.829 221.611 396.445 216.974 396.527C211.858 396.445 207.541 393.175 205.942 388.515C205.862 388.188 205.702 387.943 205.622 387.616H195.149H184.356H173.564H162.851H152.058H141.265H130.552H119.76H108.967H98.2541H87.4613H76.6685H65.9557H55.1629H44.3702H33.6573H22.8646H12.0718H7.75469L1.51887 393.992L0.079834 395.464V386.39L1.27903 385.163L5.11646 381.158H11.9119H22.6247H33.4175H44.2103H54.9231H65.7159H76.5086H87.2214H98.0142H108.807H119.52H130.313H141.105H151.818H162.611H173.404H184.196H194.909H205.622L205.702 380.994C207.061 376.171 211.138 372.655 216.175 372.247C216.415 372.247 216.735 372.247 216.974 372.247C221.292 372.247 225.049 374.536 227.128 378.051Z" fill="url(#paint7_linear)"/>
<path fill-rule="evenodd" clip-rule="evenodd" d="M41.1723 288.452C46.9284 289.188 51.4054 294.256 51.4054 300.47C51.4054 306.274 47.3282 311.179 41.9718 312.323C41.1723 312.487 40.3728 312.569 39.5734 312.569C36.2156 312.569 33.1776 311.097 31.0191 308.808C29.74 307.337 28.7806 305.62 28.221 303.658H20.1464H9.35362H0.079834V297.2H9.11378H19.9065H28.221C28.7006 295.564 29.5001 294.011 30.5394 292.703C32.698 290.005 35.8958 288.289 39.5734 288.289C40.133 288.289 40.6127 288.37 41.1723 288.452Z" fill="url(#paint8_linear)"/>
<path fill-rule="evenodd" clip-rule="evenodd" d="M104.97 265.153H108.167V339.383H107.448H96.6551H85.8624H75.1495H64.3568L53.564 339.464H42.8512H32.0584H21.2656H10.5528H0.079834V333.006H10.313H21.1057H31.8186H42.6113H53.4041L64.1169 332.924H74.9097H85.7025H96.4153H101.852V271.611H94.4166H83.7038H72.911H62.1183H51.4054H40.6127H29.8199H19.0271H8.31432H0.079834V265.153H0.319673H8.07448H18.8672H29.66H40.3728H51.1656H61.9584H72.6712H83.464H94.2567H104.97Z" fill="url(#paint9_linear)"/>
<path fill-rule="evenodd" clip-rule="evenodd" d="M7.7548 165.744H0.0799464L0 159.286H7.7548H22.4649H37.255H52.0451H66.7553H81.5454H96.3354H111.046H125.836H139.107L140.626 157.733L155.336 142.691L170.126 127.567L184.836 112.525L199.626 97.401L214.336 82.3588L214.576 82.1136H229.126H243.837H258.627H273.417H288.127H302.917H317.707H323.863V205.475C328.9 206.865 332.577 211.525 332.577 217.084C332.577 223.787 327.301 229.265 320.745 229.265C319.786 229.265 318.826 229.101 317.867 228.856C312.75 227.548 308.913 222.806 308.913 217.084C308.913 211.525 312.591 206.865 317.627 205.475L317.547 88.4901L302.917 88.5719H288.207H273.417H258.627H243.837H229.126H217.214L214.336 91.4332L199.626 106.557L184.836 121.599L170.126 136.723L155.336 151.765L141.745 165.744H140.626H125.836H111.126H96.3354H81.5454H66.7553H52.0451H37.255H22.4649H7.7548Z" fill="url(#paint10_linear)"/>
<path fill-rule="evenodd" clip-rule="evenodd" d="M7.67486 139.503H0V133.045H7.67486H22.4649H37.1751H51.9652H66.7553L81.5453 132.963H96.2555H111.046H125.836H126.235L140.546 118.329L155.336 103.206L170.046 88.1636L184.756 73.0397L199.546 57.9976L201.625 55.7903H214.256H229.046H243.837H258.627H273.337H288.127H302.917H317.627H332.417H347.207H360.398V158.224C360.958 158.387 361.518 158.551 362.077 158.796C366.235 160.676 369.113 164.927 369.113 169.832C369.113 174.737 366.235 178.988 362.157 180.869C360.638 181.604 359.039 181.931 357.281 181.931C353.123 181.931 349.446 179.806 347.367 176.454C346.168 174.574 345.448 172.285 345.448 169.832C345.448 167.38 346.088 165.173 347.367 163.292C348.886 160.84 351.285 159.041 354.083 158.224V62.2486H347.207H332.417H317.627H302.917H288.127H273.337H258.627H243.837H229.046H214.336H204.263L199.546 67.0719L184.756 82.1958L170.046 97.2379L155.336 112.362L140.546 127.404L128.794 139.421H125.836H111.046H96.2555H81.5453H66.7553H51.9652L37.255 139.503H22.4649H7.67486Z" fill="url(#paint11_linear)"/>
<path fill-rule="evenodd" clip-rule="evenodd" d="M0.0799464 110.154H0V103.696H8.47432H17.5083H26.5422H35.5762H44.6901H53.724H62.758H71.8718H80.9058H89.9397H98.9737H108.088H115.682L117.122 102.143L126.315 92.8232L135.429 83.5036L144.543 74.1023L153.737 64.7827L162.851 55.3814L171.965 46.0619L181.159 36.7423L190.273 27.341L191.072 26.5235H199.306H208.42H217.454H226.488H235.522L244.636 26.4417H253.67H262.704H271.818H280.852H289.886H298.92H308.034H317.068H326.102H335.215H344.249H353.283H362.397H371.431H380.465H389.499H398.613H407.647H416.681H425.795H434.829H443.863H452.897H462.01H469.445C469.765 25.1337 470.325 23.9075 471.044 22.8447C473.123 19.8199 476.401 17.7762 480.158 17.5309C480.398 17.5309 480.558 17.5309 480.798 17.5309C484.076 17.5309 487.034 18.9207 489.192 21.1279C491.351 23.2535 492.63 26.2782 492.63 29.63C492.63 33.0635 491.271 36.17 489.032 38.3773C486.954 40.5028 483.996 41.8108 480.798 41.8108C480.558 41.8108 480.238 41.7291 479.998 41.7291C476.161 41.4838 472.883 39.3583 470.964 36.3335C470.325 35.2708 469.765 34.1263 469.445 32.9H461.931H452.897H443.783H434.749H425.715H416.681H407.567H398.533H389.499H380.385H371.351H362.317H353.283H344.169H335.135H326.102H316.988H307.954H298.92H289.806H280.772H271.738H262.704H253.59H244.556H235.522H226.408L217.374 32.9818H208.34H199.306H193.71L190.193 36.5788L181.079 45.8984L171.885 55.2997L162.771 64.6192L153.577 73.9388L144.463 83.3401L135.349 92.6597L126.235 101.979L118.321 110.073H117.042H108.008H98.9737H89.8598H80.8258H71.7919H62.758L53.6441 110.154H44.6101H35.5762H26.4623H17.4283H8.39438H0.0799464Z" fill="url(#paint12_linear)"/>
<path fill-rule="evenodd" clip-rule="evenodd" d="M76.6686 56.4442C82.025 57.5887 86.1023 62.4937 86.1823 68.298C86.1823 73.9388 82.4248 78.5985 77.3881 79.9883C76.4288 80.3153 75.3895 80.397 74.2702 80.397C71.3122 80.397 68.594 79.3343 66.5954 77.454C64.8366 75.9008 63.5574 73.857 62.9178 71.568H55.5628H44.8499H34.0572H23.2644H12.5516H1.75882H0V65.1097H1.51898H12.3118H23.1045H33.8173H44.6101H55.4029H62.9178C63.4775 63.0659 64.5168 61.1857 65.9558 59.7142C68.1144 57.5887 70.9924 56.1989 74.2702 56.1989C75.0697 56.1989 75.8692 56.2807 76.6686 56.4442Z" fill="url(#paint13_linear)"/>
<path fill-rule="evenodd" clip-rule="evenodd" d="M9.59357 45.3258H0V38.8675H9.59357H19.9067H30.2197H40.5328H50.9259H61.239L71.552 38.7858H81.8651H92.2582H102.331C102.411 38.5405 102.491 38.2953 102.571 38.05C104.09 33.5537 108.088 30.2837 112.884 29.9567C113.124 29.9567 113.444 29.8749 113.684 29.8749C117.601 29.8749 121.039 31.837 123.197 34.8617C124.636 36.8238 125.516 39.358 125.516 42.0558C125.516 44.7536 124.716 47.2061 123.277 49.1681C121.119 52.1929 117.601 54.1549 113.684 54.1549C113.444 54.1549 113.204 54.1549 112.964 54.1549C108.168 53.8279 104.17 50.5579 102.571 46.1433C102.491 45.8163 102.411 45.5711 102.331 45.2441H92.2582H81.9451H71.552H61.239H50.9259H40.6128H30.2997H19.9067L9.59357 45.3258Z" fill="url(#paint14_linear)"/>
<path fill-rule="evenodd" clip-rule="evenodd" d="M9.51363 15.9776H0V9.51936H9.51363H19.8267H30.1398H40.4529H50.766H61.159H71.4721H81.7852H92.0983H102.491H112.804H123.118H130.632C131.192 7.55734 132.151 5.84058 133.431 4.45082C135.589 2.08006 138.627 0.608551 142.065 0.608551C142.624 0.608551 143.184 0.608551 143.744 0.6903C149.5 1.5078 153.897 6.57634 153.897 12.7076C153.897 18.7572 149.5 23.8257 143.824 24.6432C143.264 24.725 142.624 24.8067 142.065 24.8067C138.627 24.8067 135.669 23.3352 133.511 21.0462C132.151 19.5747 131.192 17.8579 130.712 15.8959H123.118H112.804H102.491H92.1782H81.7852H71.4721H61.159H50.8459L40.4529 15.9776H30.1398H19.8267H9.51363Z" fill="url(#paint15_linear)"/>
<defs>
<linearGradient id="paint0_linear" x1="507.58" y1="574.334" x2="507.58" y2="289.924" gradientUnits="userSpaceOnUse">
<stop stop-color="#FF03C8"/>
<stop offset="0.46875" stop-color="#66FFCC"/>
<stop offset="1" stop-color="#FF003D" stop-opacity="0"/>
</linearGradient>
<linearGradient id="paint1_linear" x1="481.158" y1="548.01" x2="481.158" y2="263.682" gradientUnits="userSpaceOnUse">
<stop stop-color="#FF03C8"/>
<stop offset="0.46875" stop-color="#66FFCC"/>
<stop offset="1" stop-color="#FF003D" stop-opacity="0"/>
</linearGradient>
<linearGradient id="paint2_linear" x1="378.027" y1="317.964" x2="378.027" y2="225.341" gradientUnits="userSpaceOnUse">
<stop stop-color="#FF03C8"/>
<stop offset="0.46875" stop-color="#66FFCC"/>
<stop offset="1" stop-color="#FF003D" stop-opacity="0"/>
</linearGradient>
<linearGradient id="paint3_linear" x1="351.644" y1="291.722" x2="351.644" y2="199.099" gradientUnits="userSpaceOnUse">
<stop stop-color="#FF03C8"/>
<stop offset="0.46875" stop-color="#66FFCC"/>
<stop offset="1" stop-color="#FF003D" stop-opacity="0"/>
</linearGradient>
<linearGradient id="paint4_linear" x1="346.368" y1="262.374" x2="346.368" y2="169.75" gradientUnits="userSpaceOnUse">
<stop stop-color="#FF03C8"/>
<stop offset="0.46875" stop-color="#66FFCC"/>
<stop offset="1" stop-color="#FF003D" stop-opacity="0"/>
</linearGradient>
<linearGradient id="paint5_linear" x1="73.3507" y1="524.548" x2="73.3507" y2="436.748" gradientUnits="userSpaceOnUse">
<stop stop-color="#FF03C8"/>
<stop offset="0.46875" stop-color="#66FFCC"/>
<stop offset="1" stop-color="#FF003D" stop-opacity="0"/>
</linearGradient>
<linearGradient id="paint6_linear" x1="91.6185" y1="477.296" x2="91.6185" y2="410.506" gradientUnits="userSpaceOnUse">
<stop stop-color="#FF03C8"/>
<stop offset="0.46875" stop-color="#66FFCC"/>
<stop offset="1" stop-color="#FF003D" stop-opacity="0"/>
</linearGradient>
<linearGradient id="paint7_linear" x1="114.483" y1="396.527" x2="114.483" y2="372.247" gradientUnits="userSpaceOnUse">
<stop stop-color="#FF03C8"/>
<stop offset="0.46875" stop-color="#66FFCC"/>
<stop offset="1" stop-color="#FF003D" stop-opacity="0"/>
</linearGradient>
<linearGradient id="paint8_linear" x1="25.7426" y1="312.569" x2="25.7426" y2="288.289" gradientUnits="userSpaceOnUse">
<stop stop-color="#FF03C8"/>
<stop offset="0.46875" stop-color="#66FFCC"/>
<stop offset="1" stop-color="#FF003D" stop-opacity="0"/>
</linearGradient>
<linearGradient id="paint9_linear" x1="54.1236" y1="339.464" x2="54.1236" y2="265.153" gradientUnits="userSpaceOnUse">
<stop stop-color="#FF03C8"/>
<stop offset="0.46875" stop-color="#66FFCC"/>
<stop offset="1" stop-color="#FF003D" stop-opacity="0"/>
</linearGradient>
<linearGradient id="paint10_linear" x1="166.289" y1="229.265" x2="166.289" y2="82.1136" gradientUnits="userSpaceOnUse">
<stop stop-color="#FF03C8"/>
<stop offset="0.46875" stop-color="#66FFCC"/>
<stop offset="1" stop-color="#FF003D" stop-opacity="0"/>
</linearGradient>
<linearGradient id="paint11_linear" x1="184.556" y1="181.931" x2="184.556" y2="55.7903" gradientUnits="userSpaceOnUse">
<stop stop-color="#FF03C8"/>
<stop offset="0.46875" stop-color="#66FFCC"/>
<stop offset="1" stop-color="#FF003D" stop-opacity="0"/>
</linearGradient>
<linearGradient id="paint12_linear" x1="246.315" y1="110.154" x2="246.315" y2="17.5309" gradientUnits="userSpaceOnUse">
<stop stop-color="#FF03C8"/>
<stop offset="0.46875" stop-color="#66FFCC"/>
<stop offset="1" stop-color="#FF003D" stop-opacity="0"/>
</linearGradient>
<linearGradient id="paint13_linear" x1="43.0911" y1="80.397" x2="43.0911" y2="56.1989" gradientUnits="userSpaceOnUse">
<stop stop-color="#FF03C8"/>
<stop offset="0.46875" stop-color="#66FFCC"/>
<stop offset="1" stop-color="#FF003D" stop-opacity="0"/>
</linearGradient>
<linearGradient id="paint14_linear" x1="62.7579" y1="54.1549" x2="62.7579" y2="29.8749" gradientUnits="userSpaceOnUse">
<stop stop-color="#FF03C8"/>
<stop offset="0.46875" stop-color="#66FFCC"/>
<stop offset="1" stop-color="#FF003D" stop-opacity="0"/>
</linearGradient>
<linearGradient id="paint15_linear" x1="76.9484" y1="24.8067" x2="76.9484" y2="0.608551" gradientUnits="userSpaceOnUse">
<stop stop-color="#FF03C8"/>
<stop offset="0.46875" stop-color="#66FFCC"/>
<stop offset="1" stop-color="#FF003D" stop-opacity="0"/>
</linearGradient>
</defs>
</svg>
